<svg id="Layer_1" data-name="Layer 1" xmlns="http://www.w3.org/2000/svg" viewBox="0 0 462.28 455.04"><defs><style>.cls-1{fill:#fff;}.cls-2{fill:#e1a946;}.cls-3{fill:#1e3e2d;}.cls-4{fill:#21402f;}.cls-5{fill:#e5b343;}.cls-6{fill:#234230;}.cls-7{fill:#f3f2ec;}.cls-8{fill:#1e3b2b;}.cls-9{fill:#dda134;}.cls-10{fill:#fbf6ec;}.cls-11{fill:#e6e0bb;}.cls-12{fill:#e2b25b;}.cls-13{fill:#fdfdfd;}.cls-14{fill:#fefefe;}.cls-15{fill:#0b281b;}.cls-16{fill:#1d3e2b;}.cls-17{fill:#203f2d;}.cls-18{fill:#20402e;}.cls-19{fill:#1e3f2c;}.cls-20{fill:#e6b445;}.cls-21{fill:#e7b647;}.cls-22{fill:#e5bd46;}.cls-23{fill:#eac04a;}.cls-24{fill:#2d473a;}.cls-25{fill:#e1ab4b;}.cls-26{fill:#fbfcfb;}.cls-27{fill:#f8f9f8;}</style></defs><ellipse class="cls-1" cx="245.97" cy="226.08" rx="216.32" ry="219.99"/><path class="cls-2" d="M382.37,648.23c8.08,6,16,12.25,24.28,18a246.94,246.94,0,0,0,44.24,24.63,16,16,0,0,1,1.58.64c.57.28,1,.43,1.51.74,3.33,1.52,6.53,2.88,9.73,4.24l.35-.91-10.4-4.5a5,5,0,0,1-1-.38,7,7,0,0,0-1.18-.49c-9.32-5.55-19-10.58-27.91-16.76-27.34-19-50.28-42.37-68-70.76a212.45,212.45,0,0,0-12.57-18c-2.54-3.29-5.79-6-8.89-8.87a27.58,27.58,0,0,0-16.58-7A28.81,28.81,0,0,1,294.28,554a132.37,132.37,0,0,1-8-18.13c9.8,2.12,30.31,2.41,38.72,7.4,7.43,4.4,8.43,6.82,10,14.54.41,2-.76,9.87,1,10.83,3.58,1.93-.86,4.55,3.26,7.08-1.26-2.73-2.35-4.87-3.26-7.08-5.11-12.3-10.24-24.6-15.25-36.94a27.91,27.91,0,0,0-14.28-15.49c-11.28-5.33-16.25-14.87-17.31-26.79-.31-3.47-.05-7-.05-10.79,5.19,4.44,10.43,8.53,15.2,13.11,6.19,5.94,8.72,13.4,7.74,22a3.2,3.2,0,0,0,.43,2.36c2.32,2.19,4.81,4.2,6.89,6-.85-6.34-1.88-13.41-2.73-20.51-1.28-10.66-3.09-21.31-3.52-32-1.05-26.11,4.51-51.11,14.73-75,19.75-46.25,51.87-81.23,96.8-104.54a28,28,0,0,0,3.2.13,7.34,7.34,0,0,1-.06,2.35c-7.62,4.23-15.15,8.22-22.27,12.83-1.53,1-4.8,2.52-3.43,6.1-1.94,1.89-3.78,3.59-5.63,5.27-4.63,4.19-9.5,8.14-13.84,12.61-4.93,5.07-9.4,10.59-14.26,16-.79.91-1.39,1.7-2.14,2.63s-1.22,1.71-1.91,2.61-1.24,1.66-1.93,2.56c-.49.68-.83,1.23-1.32,1.91s-.62,1-.86,1.47c0,0,.05,0-.17.05a7,7,0,0,0-.73,1.62c-3.45,5.51-6.8,10.85-10.33,16.31a5.18,5.18,0,0,0-.41,1.36s0,0-.19,0a3.29,3.29,0,0,0-.46,1.26s0,0-.19,0a3.39,3.39,0,0,0-.46,1.27s0,0-.2,0a9.53,9.53,0,0,0-1.07,2s0,0-.17.05a17.91,17.91,0,0,0-1.12,2.53s0,0-.16.08a8.18,8.18,0,0,0-.51,1.84s0,0-.19,0a3.56,3.56,0,0,0-.45,1.26s0,0-.2,0c-1.37,2.82-2.51,5.62-3.67,8.39,0,0,0,0-.17.07-2.6,6.5-5,12.91-7.58,19.4a6.59,6.59,0,0,0-.63,1.86s0,0-.21.08a17,17,0,0,1-3.14.37,1.1,1.1,0,0,0-.48-.34c0,.1,0,.21,0,.31-1.06,4.17-2.13,8.34-3.25,12.75-1.23,6.35-2.48,12.43-3.55,18.54a152.34,152.34,0,0,0-1,46.5c0,.43.51.82,1,1.15a77.92,77.92,0,0,0,1.5-11c.36-9.4.45-18.8.73-28.2a36.1,36.1,0,0,1,.89-5c.37,1.73.63,2.94.92,4.45-.15,6.37-.42,12.46-.46,18.55a58.85,58.85,0,0,0,.76,6.56c.41,3.82.78,7.65,1.15,11.74.15,1.92.34,3.57.61,6.07a57.06,57.06,0,0,1,2-6.68c2-4.47,4.23-8.84,6.56-13.36,1.71-2.47,3.25-4.83,4.78-7.2l-1.06-.61c-1.3,2.43-2.6,4.87-4.15,7.21-2.68-7.66.06-14.08,4.51-19.88,6.87-9,17-13.14,27.32-17.92-.44,3-.81,5.5-1.18,8-2.05,13.62-7.67,24.5-21.6,29.58-5.06,1.84-8.34,6.1-10.6,10.85-4,8.33-6.54,16.88-5.44,26.44a154.48,154.48,0,0,0,6.51,29c.28-2.28.21-4.54.3-6.79.15-3.7.54-7.41.6-11.11.15-8.61,2.42-16.4,9.9-21.32,5.4-3.54,11.42-6.12,17.17-9.14l1.14,1c-1.91,6-3.53,12.09-5.81,17.92a25.22,25.22,0,0,1-10.41,12c-9.17,5.84-12,12.46-10,23.06,2.9,15.33,9.48,29.15,17.63,42.52a4.53,4.53,0,0,0,.59.68c-.08-.4-.16-.8-.27-1.46-1.28-5.22-2.47-10.2-3.83-15.14a21.38,21.38,0,0,1,.32-13.88c3.52-9.13,11.53-13.39,19.53-19.06,0,2.48-.05,4.17,0,5.85.36,11.6-1.87,22-12.25,29.23-1.16.8-1.85,2.85-2,4.4a22.84,22.84,0,0,0,.48,7c2.33,10.18,7.87,18.84,13.91,27.08,18,24.6,40.51,44.44,66.44,60.41a217.24,217.24,0,0,0,47.35,22.35c1.58.51,3,.89,4.49,1.33a2.19,2.19,0,0,1,.6.23,11.69,11.69,0,0,0,1.4.4c.48.15.76.21,1.19.38s.84.19,1.39.31.76.23,1.14.38a1.36,1.36,0,0,0,.36.15,1.32,1.32,0,0,1,.48.06c.69.19,1.16.29,1.83.5,10.64,1.84,21.08,3.58,31.71,5.5,2.44.45,4.69.72,7.1,1.21,8.14.33,16.13.44,24.12.51a4.75,4.75,0,0,1,.38-.83c4.44-.64,8.65-1.14,13.13-1.64a179.2,179.2,0,0,0,116-63.48c6.48-7.69,11.82-16.33,17.84-24.7,4.79-8.87,9.4-17.56,14.23-26.29,4-1.37,3.67,2.13,4.79,3.91a205.18,205.18,0,0,1-21.77,39.48c-21.12,30.22-48.46,52.86-82.61,66.92a206.14,206.14,0,0,1-67.91,15.25,218.62,218.62,0,0,1-120.58-27.85c-19.81-11.05-37-25.52-52.18-42.56a.75.75,0,0,1,.19-.43m-64.85-86.69.42,0a2.25,2.25,0,0,1-.55-.62,6.29,6.29,0,0,1-1.12-.77c-.15-.16-.32-.27-.79-.69L313.31,558l-.43.66c.82.51,1.63,1,2.65,1.78.16.13.34.24.81.59a2.78,2.78,0,0,1,1.18.52m-9.1-6.92-.2,0a.87.87,0,0,1,.34.57,13.38,13.38,0,0,1,1.81,1.53l1.75,1.1.32-.54a22,22,0,0,1-2.17-1.65,12.84,12.84,0,0,1-1.85-1M360,564.34l.77-2-.64-.22a13.78,13.78,0,0,1-1,2.49v.87a10.46,10.46,0,0,1,.92-1.14M469.37,697.88l-4.15-1.71-.29.75c1.25.48,2.51,1,4.12,1.74l6.83,2.23.32-1c-2.16-.55-4.32-1.11-6.83-2M356.74,570.47l-1.22,5.37.67.13,2.73-9.21-.67-.23c-.46,1.15-.91,2.31-1.51,3.94M479.46,701.75l.44.11a.38.38,0,0,0-.44-.11m-1.81-.8.12.35C477.81,701.18,477.85,701.06,477.65,701Z" transform="translate(-286.24 -264.38)"/><path class="cls-3" d="M368.55,345.15c4.67-5.32,9.14-10.84,14.07-15.91,4.34-4.47,9.21-8.42,13.84-12.61,1.85-1.68,3.69-3.38,5.84-5.36.93-.66,1.59-1,2.19-1.4,7.61-5.39,15.22-10.8,23-16.12,7-3.62,13.8-7.32,20.59-11,0,0,0,0,.22,0,2-.88,3.83-1.75,5.6-2.64,0,0,0,0,.21.05,4-1.52,7.71-3,11.42-4.56,0,0,0,0,.19.07a10,10,0,0,0,1.75-.72s0,0,.23.06c5.3-1.49,10.35-3,15.66-4.52,2.56-.44,4.85-.95,7.16-1.31,9.52-1.52,19.05-3,28.58-4.47,24.49-1.15,48.71.3,72.26,7.72,5.82,1.84,11.52,4.07,17.47,6.49,4,2.34,7.77,4.3,11.56,6.26l-.15.45c-1.4-.09-2.8-.17-4.44-.29-2.92-1.11-5.59-2.25-8.29-3.28A200.76,200.76,0,0,0,551.34,270c-.42-.43-.77-.8-1.12-.81-5.73,0-11.46-.07-17.19,0-.54,0-1.07.72-1.88,1.18-13.13,1.94-26.23,2.78-38.79,5.83C441,288.68,400.47,317.46,369.46,360a265.09,265.09,0,0,0-31,56.54,4.21,4.21,0,0,0-1.34,1.53c-1.85,5.59-3.73,11.18-5.41,16.82-1.24,4.14-2.22,8.37-3.31,12.56l-.82-.18c.83-5.48,1.16-11.08,2.57-16.39,2.84-10.76,5.83-21.51,9.56-32a175.77,175.77,0,0,1,19.17-37.75,17.41,17.41,0,0,0,1.35-3.7,4.4,4.4,0,0,0,0-1s-.06,0,.1.16a2.4,2.4,0,0,0,1-.31,13.18,13.18,0,0,0,1.24-1.94s-.06,0,.14,0a3.65,3.65,0,0,0,.67-1.3,4.1,4.1,0,0,1,1.15-1.24,12.64,12.64,0,0,0,1.31-1.92s-.05,0,.13,0a3,3,0,0,0,.45-.67s-.07,0,.13,0a3.48,3.48,0,0,0,.73-1.26,5.37,5.37,0,0,1,1.16-1.21.83.83,0,0,0,.34-.09c0-.15-.06-.3-.08-.68A2.12,2.12,0,0,0,368.55,345.15Z" transform="translate(-286.24 -264.38)"/><path class="cls-2" d="M727.38,597.26c-1.27-1.62-.92-5.12-4.91-4,2.55-7.44,5.67-14.56,8-21.95a251.36,251.36,0,0,0,11.21-89.83c-1.42-24.35-5.11-48.26-13.46-71.31-14.07-38.77-36.24-71.95-67.83-98.68-.09-.15-.07-.26-.21-.36a5.91,5.91,0,0,0-.75-.06s.06,0,0-.14-.11-.45-.13-.64a7,7,0,0,0-.57-1.16c4,3.18,8.29,6.1,12,9.6C709.19,354.67,734,398.26,744,450.05a238.85,238.85,0,0,1,3,72.48c-2.39,21.08-6.37,41.83-14.66,61.67A26.42,26.42,0,0,1,729,582c-.63.88-1.34,1.72-1.89,2.66a6.22,6.22,0,0,0-.71,2.1c-.19,1.2-.71,2.68-.23,3.6,1.11,2.11,2.68.39,4.07,0-.91,2.26-1.82,4.52-2.87,7M743,509c-.09,4-.25,8-.18,12,0,.5,1.23,1,1.88,1.47a6.64,6.64,0,0,0,1.11-1.88,26.57,26.57,0,0,0,.37-4.37c.05-3.62,0-7.23,0-10.85l-.93-.46c-.69,1.22-1.38,2.43-2.27,4.14m-4.54,38.16c-1,3.84-2.07,7.66-2.88,11.53-.19.94.52,2.06.82,3.1.94-.68,2.47-1.18,2.72-2,1.18-4.14,2.9-8.39-.66-12.58m1.63-107.91c-.49-2.55-1-5.1-1.53-7.88-2,1.95-2,7.75-.28,8.78.35.22,1.11-.24,1.81-.9m5.13,41.51a5.19,5.19,0,0,0-1,1.14,11.61,11.61,0,0,0-.56,2c.48.12,1.21.48,1.39.31a3.8,3.8,0,0,0,.88-1.77,2.11,2.11,0,0,0-.69-1.64m-2-15.83c0,.35.06.71.1,1.07l1.86-.9-.25-.67a5.36,5.36,0,0,0-1.71.5M739,544.7l-.55.53.21.22A.77.77,0,0,0,739,544.7Z" transform="translate(-286.24 -264.38)"/><path class="cls-4" d="M338.08,610.5c3.34.63,6.42,1.12,9.45,1.84,6.1,1.47,11.26,4.57,14.3,10.13a27.75,27.75,0,0,0,12.37,11.72,15.16,15.16,0,0,1,3.87,3c-8.22-4-17.38-2.46-25.81-4.65a27.83,27.83,0,0,1-11.2-5.85,134.43,134.43,0,0,1-15.51-17.11Z" transform="translate(-286.24 -264.38)"/><path class="cls-5" d="M518.8,264.67c-9.24,1.54-18.77,3-28.29,4.53-2.31.36-4.6.87-7.44,1.28-5.57,1.48-10.6,3-15.64,4.53,0,0,0-.05-.2,0a15.9,15.9,0,0,0-1.74.68s0-.05-.22,0c-4,1.53-7.69,3-11.41,4.54,0,0,0,0-.22,0-2,.88-3.8,1.75-5.59,2.61,0,0,0,0-.22,0-4.93,2.28-9.64,4.55-14.43,6.72a.87.87,0,0,1-.22-.53c-.21-1.18-.43-2.12-.66-3.05,14-7.06,28.82-11.7,44-15.41A210.44,210.44,0,0,1,518.8,264.67Z" transform="translate(-286.24 -264.38)"/><path class="cls-6" d="M658.72,309.17a2.39,2.39,0,0,1,.42,1.16.51.51,0,0,1-.62.23c-3.59-2.55-6.79-5.34-10.41-7.41-10.6-6.08-21.37-11.86-32.08-17.76l4.2.26.15-.45c-3.79-2-7.57-3.92-11.4-6.1,14,5.11,26.8,12.65,38.93,21.41,3.13,2.26,6.08,4.75,9.35,7.42a3.61,3.61,0,0,0,.86.6s0,0,0,.16a4,4,0,0,0,.61.52s0,0,0,0M623.66,287l-.67,0a2.58,2.58,0,0,1,1,.5l.67,0a2.45,2.45,0,0,1-1-.5m-2.12-.65h0m9.05,4.52" transform="translate(-286.24 -264.38)"/><path class="cls-2" d="M730.38,590.11c-1.52.59-3.09,2.31-4.2.2-.48-.92,0-2.4.23-3.6a6.22,6.22,0,0,1,.71-2.1c.55-.94,1.26-1.78,1.89-2.66l3.23,2.42A42,42,0,0,1,730.38,590.11Z" transform="translate(-286.24 -264.38)"/><path class="cls-5" d="M428,292.4l-.17-2.32a16.29,16.29,0,0,1-3-.18,23.25,23.25,0,0,1,5.35-2.7,26.28,26.28,0,0,1,2.95,2,.42.42,0,0,1,.05.41c-1.75,1.14-3.4,2.06-5.09,2.95Z" transform="translate(-286.24 -264.38)"/><path class="cls-2" d="M433.18,288.92a17.64,17.64,0,0,1-2.73-1.74,5.26,5.26,0,0,1,1.86-1.28A11.06,11.06,0,0,1,433.18,288.92Z" transform="translate(-286.24 -264.38)"/><path class="cls-2" d="M382.15,648.45a.87.87,0,0,1-.39-.28,1,1,0,0,1,.52,0C382.37,648.23,382.22,648.37,382.15,648.45Z" transform="translate(-286.24 -264.38)"/><path class="cls-2" d="M658.74,309c-.17.06-.35-.07-.59-.36C658.3,308.61,658.52,308.72,658.74,309Z" transform="translate(-286.24 -264.38)"/><path class="cls-2" d="M658.06,308.37c-.14.06-.35-.05-.62-.32C657.58,308,657.78,308.1,658.06,308.37Z" transform="translate(-286.24 -264.38)"/><path class="cls-7" d="M703.66,616.73a9.18,9.18,0,0,0,1.54-1.85,23.43,23.43,0,0,0,1-3.29c2.57,2.31,2.57,2.31-.21,5.58a30.44,30.44,0,0,1,2,2.52c-5.79,8.48-11.13,17.12-17.61,24.81a178.48,178.48,0,0,1-116.11,63.4c-.58-.18-.73-.3-.6-.53,5.84-1.17,11.49-2,17-3.43C638.51,691.33,676,664.51,701.86,622,702.8,620.46,703.08,618.5,703.66,616.73Z" transform="translate(-286.24 -264.38)"/><path class="cls-8" d="M338.48,416.53c-4.52,13.41-9,27-10.69,41.21-1.12,9.24-1.27,18.61-2.11,28.06-2.21-26.44,1.23-52.36,9.41-77.68,1.47-4.54,3-9.06,4.47-13.6h.2c1.39-2.79,2.52-5.59,3.66-8.4,0,0-.05,0,.17-.06a3.08,3.08,0,0,0,.47-1.24s0,0,.18-.11a6.82,6.82,0,0,0,.5-1.83s-.05,0,.2,0a10.65,10.65,0,0,0,1.09-2.61l.19.05a7,7,0,0,0,1.07-2s0,0,.17-.07a3.25,3.25,0,0,0,.48-1.22s-.05,0,.17-.06a3.13,3.13,0,0,0,.48-1.23s0,0,.19-.09a3.29,3.29,0,0,0,.37-1.41c3.35-5.33,6.7-10.67,10.35-16.22a4.85,4.85,0,0,1,.68-.4,16.1,16.1,0,0,1-1.28,3.47,175.77,175.77,0,0,0-19.17,37.75c-3.73,10.47-6.72,21.22-9.56,32-1.41,5.31-1.74,10.91-2.57,16.39l.82.18c1.09-4.19,2.07-8.42,3.31-12.56,1.68-5.64,3.56-11.23,5.41-16.82A4.21,4.21,0,0,1,338.48,416.53Z" transform="translate(-286.24 -264.38)"/><path class="cls-9" d="M327.83,416.47a15.39,15.39,0,0,1,3.08-.26c-2,13.14-4.2,26.08-6.41,39l-.89-4.16a36.1,36.1,0,0,0-.89,5c-.28,9.4-.37,18.8-.73,28.2a66.45,66.45,0,0,1-1.52,10.7c.71-22.26.15-44.42,4.61-66.41,1-4.14,1.87-8.1,2.75-12.06m.78,2.64V421l.7-.09A3.76,3.76,0,0,0,328.61,419.11Z" transform="translate(-286.24 -264.38)"/><path class="cls-10" d="M325,428.72c-4.34,21.8-3.78,44-4.73,66.29a1.41,1.41,0,0,1-.76-.93,152.34,152.34,0,0,1,1-46.5c1.07-6.11,2.32-12.19,3.76-18.55A1.47,1.47,0,0,1,325,428.72Z" transform="translate(-286.24 -264.38)"/><path class="cls-11" d="M324.53,455.52c2.18-13.23,4.39-26.17,6.62-39.37,0-.26,0-.29.16-.41a13.28,13.28,0,0,0,.69-1.81c2.37-6.41,4.75-12.82,7.35-19.32-1.28,4.45-2.79,9-4.26,13.51a198.86,198.86,0,0,0-9.45,78,29,29,0,0,1,.52,5.81c-.55-3.63-.92-7.46-1.33-11.28a58.85,58.85,0,0,1-.76-6.56C324.11,468,324.38,461.89,324.53,455.52Z" transform="translate(-286.24 -264.38)"/><path class="cls-5" d="M427.32,293.67q-11.42,8.1-22.83,16.2a21,21,0,0,1-2.1,1.19c-1.67-3.28,1.6-4.81,3.13-5.8,7.12-4.61,14.65-8.6,22.27-12.83.23,0,.31.06.25.24A8,8,0,0,1,427.32,293.67Z" transform="translate(-286.24 -264.38)"/><path class="cls-11" d="M573.4,707.45a2.19,2.19,0,0,0,.58.45c-4.07.58-8.28,1.08-13,1.72-8.47.12-16.42.11-24.37.09a58.06,58.06,0,0,1-7-1.11c-.2-.3-.19-.54.09-.57A185.71,185.71,0,0,0,573.4,707.45Z" transform="translate(-286.24 -264.38)"/><path class="cls-7" d="M529.46,708.06s0,.24,0,.36C519,706.81,508.59,705.07,498,703a5,5,0,0,0-2.05-.36l-.26,0a1.36,1.36,0,0,1-.36-.15c.47-2.75.63-2.79,4.86-.72a2,2,0,0,0,1.27,1.16c5.64,1.14,11.29,2.22,17.18,3.42C522.37,707,525.91,707.53,529.46,708.06Z" transform="translate(-286.24 -264.38)"/><path class="cls-9" d="M536.76,709.94c7.79-.21,15.74-.2,24-.18a.68.68,0,0,1,.14.69C552.89,710.38,544.9,710.27,536.76,709.94Z" transform="translate(-286.24 -264.38)"/><path class="cls-11" d="M325.08,428.53a1.12,1.12,0,0,1-.77.25c.84-4.15,1.91-8.32,3-12.49,0-.1,0-.21,0-.31a1.1,1.1,0,0,1,.48.34C327,420.43,326.08,424.39,325.08,428.53Z" transform="translate(-286.24 -264.38)"/><path class="cls-11" d="M453.83,691.19l10.23,4.43-.35.91c-3.2-1.36-6.4-2.72-9.73-4.47A3.88,3.88,0,0,1,453.83,691.19Z" transform="translate(-286.24 -264.38)"/><path class="cls-7" d="M335.16,478.4c-.19.11-.21-.19-.2-.35,1.32-2.59,2.62-5,3.92-7.46l1.06.61C338.41,473.57,336.87,475.93,335.16,478.4Z" transform="translate(-286.24 -264.38)"/><path class="cls-11" d="M356.81,570.23c.53-1.39,1-2.55,1.44-3.7l.67.23L356.19,576l-.67-.13C355.93,574.05,356.34,572.26,356.81,570.23Z" transform="translate(-286.24 -264.38)"/><path class="cls-7" d="M485.07,699.49c1.77-2.11,3.26-1.84,4.31,1A20.64,20.64,0,0,1,485.07,699.49Z" transform="translate(-286.24 -264.38)"/><path class="cls-11" d="M343.19,386.15a66.69,66.69,0,0,1-3.41,8.4A65.22,65.22,0,0,1,343.19,386.15Z" transform="translate(-286.24 -264.38)"/><path class="cls-12" d="M469.72,698.22l6.48,1.66-.32,1c-2.27-.74-4.55-1.49-6.75-2.41A1,1,0,0,1,469.72,698.22Z" transform="translate(-286.24 -264.38)"/><path class="cls-11" d="M469.54,698.05c0,.19-.16.22-.58.27-1.52-.44-2.78-.92-4-1.4l.29-.75C466.6,696.74,468,697.31,469.54,698.05Z" transform="translate(-286.24 -264.38)"/><path class="cls-7" d="M492.75,701.83a12.82,12.82,0,0,1-.27-2.18l.72-.18c.24.7.48,1.41.73,2.35A1.38,1.38,0,0,1,492.75,701.83Z" transform="translate(-286.24 -264.38)"/><path class="cls-11" d="M315.33,560.19l-2.45-1.54.43-.66a13.2,13.2,0,0,1,2.2,1.7A.7.7,0,0,1,315.33,560.19Z" transform="translate(-286.24 -264.38)"/><path class="cls-11" d="M359.41,564.36l.75-2.24.64.22a10,10,0,0,1-1,2.08A.43.43,0,0,1,359.41,564.36Z" transform="translate(-286.24 -264.38)"/><path class="cls-11" d="M364.33,351.77c-.29.34-.58.69-1,1.25-.15.21-.39.28-.49.19l-.27-.27a16.7,16.7,0,0,1,1.85-2.37c.25-.05.42.1.37.29A9.2,9.2,0,0,1,364.33,351.77Z" transform="translate(-286.24 -264.38)"/><path class="cls-11" d="M364.56,350.45a10.37,10.37,0,0,1,1.76-2.47c.27,0,.47.16.42.33-.15.37-.25.58-.35.79,0,0,.08,0-.09.08a1.78,1.78,0,0,0-.47.65s.07,0-.1.06a6.8,6.8,0,0,0-.92.78Z" transform="translate(-286.24 -264.38)"/><path class="cls-11" d="M368.35,346.6c-.33.35-.65.69-1.15,1.25a.89.89,0,0,1-.41.29l-.31-.29a14.79,14.79,0,0,1,1.88-2.59c.26,0,.32.18.26.68S368.4,346.5,368.35,346.6Z" transform="translate(-286.24 -264.38)"/><path class="cls-11" d="M310.52,555.93l1.92,1.32-.32.54a7.52,7.52,0,0,1-1.76-1.38A.76.76,0,0,1,310.52,555.93Z" transform="translate(-286.24 -264.38)"/><path class="cls-13" d="M496.12,702.73a3.13,3.13,0,0,1,1.62.18A3.25,3.25,0,0,1,496.12,702.73Z" transform="translate(-286.24 -264.38)"/><path class="cls-7" d="M490.16,701.05a2.68,2.68,0,0,1,.3-1.12,8.21,8.21,0,0,1,.87,1.24A1.56,1.56,0,0,1,490.16,701.05Z" transform="translate(-286.24 -264.38)"/><path class="cls-11" d="M345.82,380.38a6,6,0,0,1-.86,2.56A5.93,5.93,0,0,1,345.82,380.38Z" transform="translate(-286.24 -264.38)"/><path class="cls-11" d="M361.22,354.85c.33-.56.67-1.11,1.16-1.79.16-.12.34.06.39.32a2.73,2.73,0,0,1-.22.94s.08,0-.09.08a8.3,8.3,0,0,1-1,.71Z" transform="translate(-286.24 -264.38)"/><path class="cls-11" d="M347.06,378.37a3.68,3.68,0,0,1-.83,2A3.76,3.76,0,0,1,347.06,378.37Z" transform="translate(-286.24 -264.38)"/><path class="cls-11" d="M308.46,554.78a16.85,16.85,0,0,1,1.94,1c.12.17,0,.37-.14.48a5.77,5.77,0,0,1-1.74-1.28C308.47,554.76,308.46,554.78,308.46,554.78Z" transform="translate(-286.24 -264.38)"/><path class="cls-9" d="M331.77,414a3.4,3.4,0,0,1-.47,1.74A3.3,3.3,0,0,1,331.77,414Z" transform="translate(-286.24 -264.38)"/><path class="cls-11" d="M361.13,356.29a1.39,1.39,0,0,1-.77.3,3.69,3.69,0,0,1,.7-1.62c.16-.12.34,0,.38.33A2.73,2.73,0,0,1,361.13,356.29Z" transform="translate(-286.24 -264.38)"/><path class="cls-11" d="M344.54,383a2.93,2.93,0,0,1-.29,1.74A2.86,2.86,0,0,1,344.54,383Z" transform="translate(-286.24 -264.38)"/><path class="cls-13" d="M355,591.56a3.44,3.44,0,0,1,.35,1.11,4.53,4.53,0,0,1-.59-.68C354.74,591.81,354.94,591.64,355,591.56Z" transform="translate(-286.24 -264.38)"/><path class="cls-12" d="M479.54,701.67a.55.55,0,0,1,.36.19A.48.48,0,0,1,479.54,701.67Z" transform="translate(-286.24 -264.38)"/><path class="cls-12" d="M477.77,700.94a.38.38,0,0,1,0,.36A.38.38,0,0,1,477.77,700.94Z" transform="translate(-286.24 -264.38)"/><path class="cls-14" d="M451.34,690.39a1.38,1.38,0,0,1,1.19.49,1,1,0,0,1-.22.54,9.86,9.86,0,0,1-1.18-.47C451.06,690.73,451.14,690.63,451.34,690.39Z" transform="translate(-286.24 -264.38)"/><path class="cls-14" d="M453.66,691.12c.18.22.18.38.19.77a2.13,2.13,0,0,1-1.38-.34c-.09-.22,0-.31.18-.54A1.81,1.81,0,0,1,453.66,691.12Z" transform="translate(-286.24 -264.38)"/><path class="cls-11" d="M348.37,375.82a1.37,1.37,0,0,1-.24,1.22A1.33,1.33,0,0,1,348.37,375.82Z" transform="translate(-286.24 -264.38)"/><path class="cls-11" d="M343.84,384.86a1.34,1.34,0,0,1-.24,1.22A1.4,1.4,0,0,1,343.84,384.86Z" transform="translate(-286.24 -264.38)"/><path class="cls-11" d="M349,374.42a1.59,1.59,0,0,1-.17,1.3A1.52,1.52,0,0,1,349,374.42Z" transform="translate(-286.24 -264.38)"/><path class="cls-11" d="M317.46,561.29a2.69,2.69,0,0,1-1.16-.5.55.55,0,0,1,.15-.43,3.87,3.87,0,0,1,1,.7C317.5,561.25,317.46,561.29,317.46,561.29Z" transform="translate(-286.24 -264.38)"/><path class="cls-11" d="M347.72,377.1a1.35,1.35,0,0,1-.25,1.21A1.36,1.36,0,0,1,347.72,377.1Z" transform="translate(-286.24 -264.38)"/><path class="cls-11" d="M360.25,357.44a1,1,0,0,1-.65.46,2,2,0,0,1,.43-1.41C360.28,356.67,360.3,356.94,360.25,357.44Z" transform="translate(-286.24 -264.38)"/><path class="cls-11" d="M359.64,564.56a3.8,3.8,0,0,1-.53.92,2.77,2.77,0,0,1,.15-1C359.41,564.36,359.56,564.49,359.64,564.56Z" transform="translate(-286.24 -264.38)"/><path class="cls-11" d="M308.48,554.76l-.26-.17s.2,0,.22.11S308.47,554.76,308.48,554.76Z" transform="translate(-286.24 -264.38)"/><path class="cls-11" d="M316.16,560.64a.85.85,0,0,1-.73-.33c-.1-.12.11-.34.22-.45a.78.78,0,0,1,.71.37C316.45,560.36,316.26,560.55,316.16,560.64Z" transform="translate(-286.24 -264.38)"/><path class="cls-11" d="M317.52,561.22a2.56,2.56,0,0,1,.42.28.59.59,0,0,1-.45-.08A.2.2,0,0,1,317.52,561.22Z" transform="translate(-286.24 -264.38)"/><path class="cls-11" d="M427.48,293.75a2.53,2.53,0,0,1,.6-1c1.75-1.07,3.4-2,5.22-3,4.89-2.39,9.6-4.66,14.55-6.94C441.28,286.43,434.46,290.13,427.48,293.75Z" transform="translate(-286.24 -264.38)"/><path class="cls-15" d="M551.34,270c-6.39.28-12.87.33-19.63.33.25-.42.78-1.13,1.32-1.14,5.73-.07,11.46,0,17.19,0C550.57,269.2,550.92,269.57,551.34,270Z" transform="translate(-286.24 -264.38)"/><path class="cls-11" d="M467.69,275q7.17-2.32,15.12-4.56Q475.66,272.79,467.69,275Z" transform="translate(-286.24 -264.38)"/><path class="cls-11" d="M454.1,280.18q5.22-2.26,11.19-4.54Q460.07,277.89,454.1,280.18Z" transform="translate(-286.24 -264.38)"/><path class="cls-11" d="M448.29,282.77a57.93,57.93,0,0,1,5.38-2.62A59.2,59.2,0,0,1,448.29,282.77Z" transform="translate(-286.24 -264.38)"/><path class="cls-8" d="M364.76,350.86a4.29,4.29,0,0,1,.95-1,5.9,5.9,0,0,1-1.14,1.87C364.46,351.53,364.58,351.29,364.76,350.86Z" transform="translate(-286.24 -264.38)"/><path class="cls-8" d="M361.37,356.25c-.12-.2,0-.44.16-.87a4.44,4.44,0,0,1,.91-1A5.88,5.88,0,0,1,361.37,356.25Z" transform="translate(-286.24 -264.38)"/><path class="cls-11" d="M465.71,275.69a4.44,4.44,0,0,1,1.54-.71A4.54,4.54,0,0,1,465.71,275.69Z" transform="translate(-286.24 -264.38)"/><path class="cls-8" d="M366.74,348.31c.05-.17.29-.24.41-.28a1.88,1.88,0,0,1-.56,1C366.49,348.89,366.59,348.68,366.74,348.31Z" transform="translate(-286.24 -264.38)"/><path class="cls-8" d="M362.75,354.27c-.11-.17,0-.4.11-.8.05-.17.29-.24.4-.29A1.93,1.93,0,0,1,362.75,354.27Z" transform="translate(-286.24 -264.38)"/><path class="cls-8" d="M368.48,346.6c-.08-.1,0-.2.13-.42.15,0,.2.18.21.33A.83.83,0,0,1,368.48,346.6Z" transform="translate(-286.24 -264.38)"/><path class="cls-8" d="M366,349.77c-.08-.15,0-.35.28-.64C366.36,349.27,366.27,349.49,366,349.77Z" transform="translate(-286.24 -264.38)"/><path class="cls-2" d="M743.1,508.74c.79-1.46,1.48-2.67,2.17-3.89l.93.46c0,3.62,0,7.23,0,10.85a26.57,26.57,0,0,1-.37,4.37,6.64,6.64,0,0,1-1.11,1.88c-.65-.49-1.87-1-1.88-1.47C742.75,517,742.91,513,743.1,508.74Z" transform="translate(-286.24 -264.38)"/><path class="cls-2" d="M738.7,547.19c3.32,4.15,1.6,8.4.42,12.54-.25.87-1.78,1.37-2.72,2-.3-1-1-2.16-.82-3.1A114.21,114.21,0,0,1,738.7,547.19Z" transform="translate(-286.24 -264.38)"/><path class="cls-2" d="M740,439.5c-.63.4-1.39.86-1.74.64-1.74-1-1.71-6.83.28-8.78C739.1,434.14,739.6,436.69,740,439.5Z" transform="translate(-286.24 -264.38)"/><path class="cls-2" d="M745.44,480.82a2.52,2.52,0,0,1,.47,1.57,3.8,3.8,0,0,1-.88,1.77c-.18.17-.91-.19-1.39-.31a11.61,11.61,0,0,1,.56-2A2.67,2.67,0,0,1,745.44,480.82Z" transform="translate(-286.24 -264.38)"/><path class="cls-2" d="M743.33,464.77a8.17,8.17,0,0,1,1.56-.35l.25.67-1.86.9A3.23,3.23,0,0,1,743.33,464.77Z" transform="translate(-286.24 -264.38)"/><path class="cls-2" d="M739.14,544.82a1.18,1.18,0,0,1-.45.63l-.21-.22A1.36,1.36,0,0,1,739.14,544.82Z" transform="translate(-286.24 -264.38)"/><path class="cls-6" d="M660.35,311.51l.17.24s-.15.08-.14-.07,0-.39,0-.51C660.28,311.25,660.26,311.36,660.35,311.51Z" transform="translate(-286.24 -264.38)"/><path class="cls-14" d="M660.14,311.15c.25.14.25.25.15.52a1,1,0,0,1-.82-.44C659.56,311.08,659.72,311.11,660.14,311.15Z" transform="translate(-286.24 -264.38)"/><path class="cls-14" d="M659.42,311c-.18.14-.36.07-.6-.19s.19-.2.34-.23S659.39,310.79,659.42,311Z" transform="translate(-286.24 -264.38)"/><path class="cls-3" d="M623.82,287.24l.83.23a1.62,1.62,0,0,1-.75-.1Z" transform="translate(-286.24 -264.38)"/><path class="cls-3" d="M623.82,287.24,623,287a1.64,1.64,0,0,1,.75.1Z" transform="translate(-286.24 -264.38)"/><path class="cls-3" d="M621.52,286.29" transform="translate(-286.24 -264.38)"/><path class="cls-3" d="M630.57,290.81" transform="translate(-286.24 -264.38)"/><path class="cls-16" d="M529.74,708c-3.83-.5-7.37-1-11-1.87a20.29,20.29,0,0,1,4.27-1.45,11.23,11.23,0,0,1,3.08.31c.7.53,1,.9,1.4.9,6.54,0,13.09.06,19.63,0,.58,0,1.15-.65,1.73-1a231.68,231.68,0,0,0,46.6-8.1,189.17,189.17,0,0,0,85-52.4c-15.52.37-29.38-3.55-41.81-12.62,13-17.75,16.59-38,18.17-59.24,2.5-21.64-4.43-65-7.73-71.21,4.38,25.22,6.26,50.52,2.72,76.23-.06.51-.06.81-.13,1.29-.14.7-.21,1.21-.38,2s-.16,1.24-.26,1.95a6.86,6.86,0,0,1-.27,1.21c-.18.72-.23,1.27-.35,2a8.18,8.18,0,0,1-.26,1.25c-2.93,14.94-7.85,28.86-16.16,41.46-13.64-9.69-24.26-22.21-33.43-36.31,4.18-4.18,8.69-7.63,12.2-11.91,16.09-19.6,24.48-42.51,27.88-67.38,3.47-25.44,2.54-50.87-.28-76.33-1.23-11.14-.47-22.19,5.5-32.22,4.4-7.38,9.24-9.64,17.43-8.17,0,0,0,0,.05.2a2.06,2.06,0,0,0,.8.33c4.89,3.29,6.91,8.32,7.39,13.77,2,22.64,10.34,42.94,22.21,62.4-2.06,3.85-4,7.35-6.07,10.71-7,11.17-14.95,21.91-16.81,36.09-.5-1.7-.82-2.81-1.13-4.18-3.72-15-7.45-29.64-11.16-44.57-.36-1.19-.72-2.15-1.1-3.25a1.77,1.77,0,0,1,0-.68c-.62-5.26-1.29-10.23-1.93-15.42,0-.52-.08-.81-.11-1.38-.31-7.95-.64-15.62-.94-22.57-6.36,7.42-1,48.09,5.69,73.43.15.73.31,1.25.48,2,.87,3.45,1.72,6.62,2.53,10a32.67,32.67,0,0,0,.86,4.34c1.69,5.65,3.19,11.37,5.26,16.88,1.48,3.95,5.15,4.19,7.8.89a15.6,15.6,0,0,0,1.6-2.42c4-7.38,7.89-14.77,12-22a2.71,2.71,0,0,1,.4,1.39q-1.43,18.44-2.9,36.86c-.72,8.93-1.51,17.86-2.31,27,0,.28,0,.39,0,.73-.16,1.14-.26,2.06-.44,3.19-.08.52-.08.82-.17,1.34-.19,1.13-.29,2-.47,3.22-3.33,18.74-8.22,36.74-16.34,53.8l1.39.73c1.89-3,4.38-5.75,5.56-9,3.77-10.4,8-20.76,10.29-31.52,2.82-13.43,3.82-27.23,5.85-41a50,50,0,0,0,1.8-5.82c1.27,1.76,2.4,2.63,2.48,3.59a19,19,0,0,1-.46,6.34c-.67,2.47.28,3.83,2.14,5.12l3.46-2.65,2.36,5.25a1.93,1.93,0,0,1-.23,1.12,29.29,29.29,0,0,0-1.22,4.11l-4.34-.88c-1.32,3.63,0,5.87,3,7.5a7.58,7.58,0,0,1,3.2,4.95c.65,4,.52,8.19.81,12.29.21,2.88,0,5.59-1.89,7.54l2,4.08c-.31,1.95-.62,3.9-.94,6.12-.59,2-.87,4-1.81,5.55-25.87,42.5-63.35,69.32-111.22,81.93-5.49,1.45-11.14,2.26-17,3.43A183.86,183.86,0,0,1,529.74,708Z" transform="translate(-286.24 -264.38)"/><path class="cls-17" d="M557.81,521.26c-6.74-9.46-13.28-19.16-22.52-26.4-5.47-4.29-11.55-7.81-17.3-11.75a7.58,7.58,0,0,1-2.76-2.81q-17.91-41.78-35.68-83.64c-2.05-4.81-4.15-9.6-6.48-15-3.11,7.61-6.11,14.58-8.82,21.66Q433.54,483.72,403,564.16A49.4,49.4,0,0,0,400.48,577a9.93,9.93,0,0,0,6.17,10.45c4.08,1.78,8.53,2.72,12.82,4a2.73,2.73,0,0,1,1.75,1H366.58l-.13-.56,3.15-1c7.76-2.6,14.26-7.06,17.62-14.62,5.73-12.87,11.09-25.91,16.23-39q31-79.06,61.71-158.23,7.33-18.78,14.72-37.56c.58-1.48,1.24-2.93,2-4.73,25.53,61.47,50.9,122.56,76.22,184A1,1,0,0,1,557.81,521.26Z" transform="translate(-286.24 -264.38)"/><path class="cls-18" d="M499.76,604.36c-9.12.21-18.25.51-27.37.58-2.1,0-3,.7-3.64,2.61-3,8.72-6.28,17.36-9.32,26.08a33.11,33.11,0,0,0-1.53,6.9c-.71,6,1.62,10.68,7,14.3a3.6,3.6,0,0,0,1.38.7.6.6,0,0,1,.46.3c.82.88,1.46,1.47,2.41,2.34-3.42,0-6.4-.09-9.37.05a8.9,8.9,0,0,0-2.65,1,28.57,28.57,0,0,1-4.95-.19,13.93,13.93,0,0,0-4-.87c-5.9-.06-11.8,0-18,0l1.74-2.47a1.05,1.05,0,0,1,.61-.17,20.66,20.66,0,0,0,3.2-2c6.1-4.4,9.51-10.66,12.18-17.46q13.94-35.44,27.9-70.86,11.82-30,23.63-60c.38-1,.77-1.92,1.18-2.92,6,4.81,9.29,11.34,12.51,17.81q21,42.11,41.72,84.31c5.38,10.88,10.6,21.83,16.19,32.6,3.83,7.39,8.27,14.42,16.6,18.37a48.33,48.33,0,0,0,4.25,2.84H576.32c-10.76,0-21.53,0-32.29,0-1.07,0-2.88.73-2.43-1.65,7.87-3.59,8.11-10.48,4.64-18-4.79-10.4-9.94-20.63-14.94-30.93-.47-1-1-1.91-1.72-3.24-.7-.61-1.14-1-1.58-1-8.76,0-17.52-.07-26.28,0-.65,0-1.3.71-2,1.09m-13.27-43.79-14.05,37.59c18.59,1.2,36.22.82,54.57.13-10.22-21.49-20.09-42.21-30.35-63.77C493.14,543.56,489.92,551.84,486.49,560.57Z" transform="translate(-286.24 -264.38)"/><path class="cls-16" d="M608.18,517.15c-7.55,5.52-15.08,11.07-22.68,16.52a26,26,0,0,1-4.88,2.48c3.89-4.7,8.67-8.85,11.72-14a215.75,215.75,0,0,0,14.38-28.37c9.12-22.41,9.39-45-.93-67.26-1.61-3.48-3.1-7-4.88-11.08,9.36,1.81,17.18-1.15,24.84-5.51a2.6,2.6,0,0,0,.73-.67,3.85,3.85,0,0,1,1.1-.65,4,4,0,0,0,.73-.59s-.06,0,.1,0a2.6,2.6,0,0,0,.63-.73,1,1,0,0,1,.81-.49,6.34,6.34,0,0,0,1.1-1.22s0,0,.25-.05a5.66,5.66,0,0,0,.85-.81c0,.05,0-.05.21,0a25,25,0,0,0,2.42-2.57s0,.06.15,0a3.35,3.35,0,0,0,.65-.9,30.18,30.18,0,0,1,3.06-2.3,3,3,0,0,0,.81-.82,1,1,0,0,1,.82-.38,4.7,4.7,0,0,0,1.12-.95,1.06,1.06,0,0,1,.84-.33,7.71,7.71,0,0,0,1.07-.64s0,0,.24,0a25.51,25.51,0,0,1,3.45,1.61c-.06.05-.23,0-.42,0a1.6,1.6,0,0,0-.52.56s0-.07-.17,0a3.11,3.11,0,0,0-.66.94c-2.51,4.06-5.48,7.71-7.19,11.87-3.71,9-2.94,18.53-2.12,28,.94,10.91,1.86,21.81,2.61,32.92-.25,6.68-.34,13.17-.36,19.65a24.9,24.9,0,0,0,.59,3.63c-1.25,9.53-1.84,18.93-3.95,28-5.88,25.19-16,48.14-37.54,64.24-5.23-9.08-10.5-18.14-15.62-27.28-.35-.63.17-2.24.8-2.83,11.88-10.91,19.25-24.82,26.38-39.38a1.5,1.5,0,0,0,0-.85Z" transform="translate(-286.24 -264.38)"/><path class="cls-2" d="M454.5,486.88c-8.09,1.26-16,3-23.25,7.19l-.59-.67c1-1,1.77-2.39,2.95-3.11,21.8-13.33,44.77-14.61,68.5-6.21,19.59,6.93,34.06,20.5,46.62,36.52,11.89,15.18,20.41,32.34,29.3,49.29,9.28,17.67,19.42,34.75,33.18,49.41,12.16,13,26.08,23.2,43.69,27.29,5.67,1.31,11.62,1.47,17.73,2.19-4.59,1-9.13,2.31-13.76,2.82-22.55,2.53-41.86-5.27-59-19.23s-29.51-31.78-40.05-51c-8.45-15.35-16.42-31-25.06-46.23A109.64,109.64,0,0,0,503,499.41c-.34-.76-.46-1.25-.77-1.44a82.56,82.56,0,0,0-33.37-12.13c-.43-.06-1,.71-1.47,1.09-2.81,0-5.63,0-8.79-.26C456.88,485.39,455.51,484.76,454.5,486.88Z" transform="translate(-286.24 -264.38)"/><path class="cls-19" d="M653.57,379.71l-7.32,1.34c-.08-.27,0,.17.13,1s0,1.36,0,2.82c-10.15-11.15-14-23.61-13.73-37.7-.34.26-.62.36-.64.5-.23,1.59-.5,3.18-.6,4.77-.77,11.89,2.13,22.42,11.61,30.35,1.39,1.17,3.28,1.73,4.94,2.57.9.42,1.8.83,2.59,1.3-5.88.35-11.29-.76-15.69-4.74-6.11-5.51-10.9-12-12.37-20.26-.75-4.2-.8-8.52-1.18-13-3.08,7.71-3.21,15.55.93,22.57,4,6.8,10,12,18.25,15.49-19-2-25.84-4.07-26-27.34l-2.82,4.31c.61-2.82,1.12-5.68,1.85-8.47,4-15.42,17.21-23.87,32.95-21.19a22.18,22.18,0,0,1,4.35,1.21c1.32,1.16,2.37,2,3.13,2.6l-5.73.86,1.78,3.72a.49.49,0,0,1-.2,0,1.4,1.4,0,0,0-.41.63s0,.07-.29,0a12.73,12.73,0,0,0-1.58,2.6s0,.1-.26.08a3.11,3.11,0,0,0-.47,1.15s0,.06-.21.07c-5.5,8-4.73,16.94-3.84,25.83,0,.39,1.09.68,1.76,1.23,1.19,3.75,3.9,4.5,7.26,4.47.69.49,1.27.85,1.86,1.2M622,347.65l.42,0C622.36,347.59,622.29,347.5,622,347.65Z" transform="translate(-286.24 -264.38)"/><path class="cls-20" d="M625.58,410c-7.49,4.32-15.31,7.28-24.67,5.47,1.78,4.06,3.27,7.6,4.88,11.08,10.32,22.28,10.05,44.85.93,67.26a215.75,215.75,0,0,1-14.38,28.37c-3.05,5.16-7.83,9.31-11.93,14.15-3.3,1.62-6.49,3-10.38,4.69,3.6-3.28,6.71-5.86,9.52-8.73,8.86-9.09,15.33-19.62,18.43-32,.4-1.59.08-3.35.24-5.47-1.16-6.94-2.51-13.45-3.75-20s-2.39-13.24-3.58-19.86l1.23-.27c4.15,12.61,9.42,24.92,9.85,38.78,7-16.31,9.19-32.94,5.33-50.14-.92-4.1-2.59-8-3.95-12,0,0,0-.06.1-.29-1.37-4.7-3-9.15-4.35-13.66-.62-2-1.63-3.41-3.74-3.86-1.84-2.7-2.24-5.39.31-8,1.38,1.91,2.56,3.27,5,2.42a3.39,3.39,0,0,1,2.13.23c6.08,2.28,11.87,1.18,17.27-1.89,4.06-2.31,7.83-5.15,12-7.79,7.26-4.87,14.86-7.85,23.59-7.16a4.09,4.09,0,0,0,1.44-.46,8.81,8.81,0,0,1,2,1.59c-5.71-.31-11,.11-15.81,3.36,0,0,0,0-.17,0a6.83,6.83,0,0,0-1.07.64,1.4,1.4,0,0,0-.84.37c-.56.43-.85.67-1.14.91-.21,0-.39.09-.8.44s-.64.59-.83.78c-.92.7-1.83,1.4-3,2.35a5.35,5.35,0,0,0-.66.87s.05,0-.16,0c-1,.85-1.72,1.65-2.47,2.44,0,0,0,.1-.14.11a4.34,4.34,0,0,0-.88.78s0,0-.21.09c-.49.46-.81.82-1.14,1.18-.21,0-.39.15-.77.52a7,7,0,0,0-.63.72s.06,0-.13,0a3.12,3.12,0,0,0-.74.57c-.27.16-.54.31-1.06.65A9.3,9.3,0,0,0,625.58,410Z" transform="translate(-286.24 -264.38)"/><path class="cls-21" d="M638.59,471.44q-1.38-16.37-2.78-32.72c-.82-9.45-1.59-19,2.12-28,1.71-4.16,4.68-7.81,7.36-12a8,8,0,0,0,.69-.9s-.07.05.12,0c.41-.09.53-.25.56-.48a.84.84,0,0,0,.42-.1,21.41,21.41,0,0,1,13.67-3.66,23.27,23.27,0,0,1,2.56,2.52c-8.23-1.25-13.07,1-17.47,8.39-6,10-6.73,21.08-5.5,32.22,2.82,25.46,3.75,50.89.28,76.33-3.4,24.87-11.79,47.78-27.88,67.38-3.51,4.28-8,7.73-12.27,11.69a35.36,35.36,0,0,1-3.25-4.83c21.53-16.32,31.6-39.27,37.48-64.46,2.11-9.06,2.7-18.46,4-28.29C638.67,486.51,638.63,479,638.59,471.44Z" transform="translate(-286.24 -264.38)"/><path class="cls-19" d="M595.34,413.72c2.13.17,3.14,1.54,3.76,3.58,1.38,4.51,3,9,4.07,13.7-3,1.54-5.59,2.8-8.15,4.11-.2.1-.22.58-.29.89-.52,2.69-1.68,5.19.66,7.93s1.66,4.83-.47,5.5a16.65,16.65,0,0,0-2.73,1.38,11.59,11.59,0,0,0,1.88,2.68c2.86,2.28,5,4.75,4.62,8.82a16.33,16.33,0,0,0,.75,6.32c.38,1.17,1.84,2,2.75,2.91.33-2.05.08-4.08.85-4.62,2.28-1.56,2.05-3.25,1.68-5.56s-3.13-5.07.28-7.32c-3.17-2.89-3.17-3-.09-4.8-3.56-1.92-2.51-3.88.37-5.83a13,13,0,0,1-2.46-2c-1-1.37-1.8-2.9-2.69-4.36l3.51-2-.26-3.89c1.33,4,3,7.93,3.92,12,3.86,17.2,1.69,33.83-5.33,50.14-.43-13.86-5.7-26.17-9.85-38.78l-1.23.27c1.19,6.62,2.33,13.25,3.58,19.86s2.59,13,3.75,19.73c-8.59-16.89-9.7-34.7-5.77-53.08,1.93-9,3.59-18.1,2.89-27.7m1.23,11.68,3.34,1.51,1-.77-2.4-4.38A13.24,13.24,0,0,0,596.57,425.4Z" transform="translate(-286.24 -264.38)"/><path class="cls-16" d="M695,475.08c2.14,2.81,4.55,5.46,6.32,8.49s-.58,5.9-1.9,9.08c-7.23,10.87-14.18,21.4-21.19,31.89a67.88,67.88,0,0,1-4.61,6c0-2,0-3.77,0-5.73,0-.51,0-.81,0-1.36a53.53,53.53,0,0,1,5.86-20.92C684.46,493.29,689.81,484.23,695,475.08Z" transform="translate(-286.24 -264.38)"/><path class="cls-5" d="M673.59,530.85c1.55-2.1,3.2-4.14,4.64-6.31,7-10.49,14-21,21.11-31.67-.55,2.24-1.28,4.63-2.2,7.33a.94.94,0,0,1-.72.32c-1,2.21-1.67,4.39-2.58,6.46-.45,1-.81,3-3,.88l-.33,3q-5.91,11.08-11.83,22.16a15.6,15.6,0,0,1-1.6,2.42c-2.65,3.3-6.32,3.06-7.8-.89-2.07-5.51-3.57-11.23-5.26-16.88a28.3,28.3,0,0,1-.85-4.65,9.08,9.08,0,0,0,0-2.76c-.78-2.43-1.7-4.83-2.57-7.24a5.56,5.56,0,0,1-.33-2c-.21-3.21-.57-6-1-8.85-2.09-13.56-4.33-27.1-6.25-40.68-.51-3.61-.08-7.35-.08-11,.6.94.44,1.93.63,2.84.51,2.46,1.18,4.88,1.78,7.33a2.53,2.53,0,0,1,0,1.28c.53,5.44,1.29,10.48,2,15.52a2.18,2.18,0,0,1,.09.65,27.87,27.87,0,0,0,1.1,3.23c3.72,14.7,7.45,29.39,11,44.5.22,3.08.63,5.77,1,8.45l.87.19c.41-2,.82-4,1.19-5.73.28,1.5.61,3.21.93,4.93a1.73,1.73,0,0,1-.19,1.1C671.17,527.17,672.3,529,673.59,530.85Z" transform="translate(-286.24 -264.38)"/><path class="cls-20" d="M650.46,585.81a5.47,5.47,0,0,1,.44-1.89,2.37,2.37,0,0,0,.18-1.34,5.29,5.29,0,0,1,.35-1.81,6.12,6.12,0,0,0,.3-2.07,2.15,2.15,0,0,1,.28-1.19c.92-5.42,1.75-10.53,2.13-15.68.46-6.18.54-12.39.79-18.58h1.19c0,8.75,0,17.49,0,26.23a19.45,19.45,0,0,0,.59,3.35c-1.53,20.94-5.17,41.22-18.29,58.82a25,25,0,0,1-4.39-2.74c8.22-12.79,13.14-26.71,16.22-41.73A2.64,2.64,0,0,0,650.46,585.81Z" transform="translate(-286.24 -264.38)"/><path class="cls-16" d="M605.57,389.22c1.41-6,2.82-11.91,4.63-18a17,17,0,0,1,3.23,5.11,17.24,17.24,0,0,0,9.89,10.91c3.24,1.08,6.44,1.83,9.56,2.8.76.24,1.29,1.2,1.8,1.88a2.15,2.15,0,0,1-.65,0A11,11,0,0,0,632.1,393c-5.63,1.45-11,3.43-16.55,3.9C609.66,397.42,606.55,394.39,605.57,389.22Z" transform="translate(-286.24 -264.38)"/><path class="cls-22" d="M623.24,387c-5-1.94-8.06-5.64-9.81-10.67a25.4,25.4,0,0,0-3.08-5.31,58.8,58.8,0,0,1,1.19-7.08c1-1.66,2-3.09,2.9-4.53.16,23.27,7,25.36,26,27.34-8.21-3.49-14.25-8.69-18.25-15.49-4.14-7-4-14.86-.93-22.57.38,4.44.43,8.76,1.18,13,1.47,8.29,6.26,14.75,12.37,20.26,4.4,4,9.81,5.09,15.94,4.76a3.34,3.34,0,0,1,1.87,1.29c-4.11.23-8,0-11.83.36A45.74,45.74,0,0,1,623.24,387Z" transform="translate(-286.24 -264.38)"/><path class="cls-8" d="M703.41,569.41a51.61,51.61,0,0,1-2.47-5L697.48,567c-1.86-1.29-2.81-2.65-2.14-5.12a19,19,0,0,0,.46-6.34c-.08-1-1.21-1.83-2.48-3.59a34,34,0,0,1-1.83,5.64,3.19,3.19,0,0,1-.35-1.77c.05-2,0-3.82.24-5.67a18,18,0,0,0,.33-3.43c.18-3.13.34-6,.71-8.65.32,1.88.28,3.61.6,5.27.2,1,1.18,2.88,1.41,2.82,1.91-.49,5.16-1.13,5.3-2.12a22.8,22.8,0,0,0-.88-9.11c-.17-.61-3.18-.45-4.88-.62a1.86,1.86,0,0,0-.56.11,9,9,0,0,1-1.18,1.95c0-1.83.1-3.37.26-5,.13-.12.21-.21.2-.24a1.73,1.73,0,0,1-.31-.57,20,20,0,0,1,.58-4.19c2,1.57,3.79,3,5.82,4.69-.39-4.32-.74-8.28-1.09-12.24-.22-2.54,0-5.23-.78-7.58a7.92,7.92,0,0,1,.61-7c2,21.62,4,43.24,5.89,65.07m-5.13-11.91,3.51,3.69-1.38-7a14,14,0,0,0-2.13,3.27m2.35-6.81v-1.8l-.5,0a3.49,3.49,0,0,0,.5,1.77m1.07,12.09" transform="translate(-286.24 -264.38)"/><path class="cls-16" d="M631.77,398.49c-3.9,2.6-7.67,5.44-11.73,7.75-5.4,3.07-11.19,4.17-17.27,1.89a3.39,3.39,0,0,0-2.13-.23c-2.41.85-3.59-.51-4.74-2.53a98.05,98.05,0,0,1,6.92-10c5.18,5.16,11.13,6.56,17.86,5,3-.71,5.93-1.71,9.12-2.55C630.61,398,631.19,398.25,631.77,398.49Z" transform="translate(-286.24 -264.38)"/><path class="cls-22" d="M629.56,397.71c-2.95.87-5.88,1.87-8.88,2.58-6.73,1.61-12.68.21-17.71-5.1a44.1,44.1,0,0,1,2.44-5.82c1.14,5,4.25,8.05,10.14,7.54,5.52-.47,10.92-2.45,16.77-4l1.95-1a2.16,2.16,0,0,0,.64-.1c6.37-2.5,12.64-2.9,19-2.54.16-.08.28,0,.06.3C644.69,389.59,637.1,393.56,629.56,397.71Z" transform="translate(-286.24 -264.38)"/><path class="cls-23" d="M673.61,523.47c-.38-1.46-.71-3.17-1-4.67-.37,1.77-.78,3.75-1.19,5.73l-.87-.19c-.4-2.68-.81-5.37-1-8.2a21.42,21.42,0,0,1,1.32,3.77c1.86-14.18,9.77-24.92,16.81-36.09,2.12-3.36,4-6.86,6.15-10.49a3.68,3.68,0,0,1,1.2,1.56c-5.19,9.34-10.54,18.4-15.53,27.66A53.53,53.53,0,0,0,673.61,523.47Z" transform="translate(-286.24 -264.38)"/><path class="cls-8" d="M704.71,610.11a30.59,30.59,0,0,1-2.1-3.85c1.85-2,2.1-4.66,1.89-7.54-.29-4.1-.16-8.26-.81-12.29a7.58,7.58,0,0,0-3.2-4.95c-3-1.63-4.3-3.87-3-7.5l4.34.88A23.7,23.7,0,0,1,703,571q1.41,16.38,2.33,32.85A34.22,34.22,0,0,1,704.71,610.11Z" transform="translate(-286.24 -264.38)"/><path class="cls-24" d="M541.35,656.57c-.2,2.31,1.61,1.58,2.68,1.58,10.76,0,21.53,0,32.29,0h15.55a48.14,48.14,0,0,1-4.08-2.71c4.26.91,8.57,2,12.89,3.18v.4H534.38l-.12-.58Z" transform="translate(-286.24 -264.38)"/><path class="cls-4" d="M653.78,379.65a4,4,0,0,1-1.87-1.25c1.87-2,4.2-3.5,5.33-5.62,5-9.44,5-19.07.37-28.63a9,9,0,0,1,2.29,2.65c1,2.39,1.69,4.88,2.77,8.08.51-2.42.85-4,1.18-5.6,1.37,9.51-.84,18.26-5.82,26.34-1,1.56-2.67,2.65-4.25,4M663.12,357l-.18-.79c-.08.06-.23.13-.23.17C662.75,356.66,662.83,356.92,663.12,357Z" transform="translate(-286.24 -264.38)"/><path class="cls-16" d="M697.56,504.07a8.46,8.46,0,0,0-.65,7.23c.8,2.35.56,5,.78,7.58.35,4,.7,7.92,1.09,12.24-2-1.66-3.83-3.12-5.85-5,1.08-8.84,2.38-17.27,3.69-25.69a1,1,0,0,0,.47,0A18.88,18.88,0,0,1,697.56,504.07Z" transform="translate(-286.24 -264.38)"/><path class="cls-23" d="M647.83,385.14a17.21,17.21,0,0,1-4.86-2.36c-9.48-7.93-12.38-18.46-11.61-30.35.1-1.59.37-3.18.6-4.77,0-.14.3-.24.64-.5-.27,14.09,3.58,26.55,13.73,37.7a17.87,17.87,0,0,1,.09-2.59A19.71,19.71,0,0,1,647.83,385.14Z" transform="translate(-286.24 -264.38)"/><path class="cls-9" d="M467.68,487c.25-.46.79-1.23,1.22-1.17A82.56,82.56,0,0,1,502.27,498c.31.19.43.68.64,1.28-8.09-3.23-16.1-6.92-24.31-10.08C475.27,487.89,471.5,487.75,467.68,487Z" transform="translate(-286.24 -264.38)"/><path class="cls-19" d="M663.89,349c-.37,1.85-.71,3.44-1.22,5.86-1.08-3.2-1.8-5.69-2.77-8.08a9.07,9.07,0,0,0-2.28-2.65c-.22,0-.24,0-.25-.2-.3-.45-.59-.68-.8-1,.07-.06,0,.1-.05-.09a1.76,1.76,0,0,0-.62-.54s0,0,0-.22c-.33-2.11-.23-3.25,2.14-2a9.78,9.78,0,0,0,2.92.6C662,343.42,663,346.09,663.89,349Z" transform="translate(-286.24 -264.38)"/><path class="cls-4" d="M660.92,340.54a5.63,5.63,0,0,1-2.84-.39c-2.37-1.29-2.47-.15-2.34,1.88a15.47,15.47,0,0,1-2.94-1.69L650,342.45c-.46-.94-.91-1.88-1.79-3.72l5.73-.86a38.1,38.1,0,0,1-2.9-2.49C654.76,335.9,658.42,336.94,660.92,340.54Z" transform="translate(-286.24 -264.38)"/><path class="cls-25" d="M351.41,536.38c2.41-1.24,4.45-.7,5.16,1.5a4.74,4.74,0,0,1-1.24,4.28c-.93.67-3.35.41-4.36-.39C349.07,540.27,349.57,538.21,351.41,536.38Z" transform="translate(-286.24 -264.38)"/><path class="cls-8" d="M653.86,389.14c-6.31-.18-12.58.22-18.82,2.67-.87-.57-1.4-1.53-2.16-1.77-3.12-1-6.32-1.72-9.56-2.8a50.36,50.36,0,0,0,17.47,1.08c3.83-.37,7.72-.13,11.9-.17A2.62,2.62,0,0,1,653.86,389.14Z" transform="translate(-286.24 -264.38)"/><path class="cls-24" d="M431.68,655.75a13.53,13.53,0,0,1-1.52,2.42c6.18,0,12.08,0,18,0a12.11,12.11,0,0,1,3.72.81c-9,.24-18.05.24-27.11.24l-.15-.64C426.89,657.67,429.17,656.73,431.68,655.75Z" transform="translate(-286.24 -264.38)"/><path class="cls-8" d="M629.8,397.74c7.3-4.18,14.89-8.15,24.15-8a16.69,16.69,0,0,1,2.83,1,1.65,1.65,0,0,1-1.2.56c-8.73-.69-16.33,2.29-23.59,7.16C631.19,398.25,630.61,398,629.8,397.74Z" transform="translate(-286.24 -264.38)"/><path class="cls-8" d="M522.75,704.64c-1.21.45-2.66.82-4.26,1.42-5.79-.88-11.44-2-17.08-3.1a2.08,2.08,0,0,1-1.2-.94C507.77,702.78,515.14,703.67,522.75,704.64Z" transform="translate(-286.24 -264.38)"/><path class="cls-15" d="M500.06,604.4c.36-.42,1-1.12,1.66-1.13,8.76-.07,17.52,0,26.28,0,.44,0,.88.43,1.39.9C519.76,604.43,510.06,604.43,500.06,604.4Z" transform="translate(-286.24 -264.38)"/><path class="cls-24" d="M457.38,659.33a4.76,4.76,0,0,1,2.36-1.11c3-.14,5.95-.05,9.37-.05a27.38,27.38,0,0,1-2.29-2.26c3.38.72,6.8,1.65,10.22,2.58l-.07.9C470.54,659.39,464.11,659.39,457.38,659.33Z" transform="translate(-286.24 -264.38)"/><path class="cls-8" d="M660.66,393.52a22.37,22.37,0,0,0-13.51,3.76c-1.27-.45-2.36-1-3.71-1.49,4.5-3.26,9.84-3.68,15.66-3.22A4.47,4.47,0,0,1,660.66,393.52Z" transform="translate(-286.24 -264.38)"/><path class="cls-15" d="M548.56,704.87c-.3.4-.87,1-1.45,1-6.54.06-13.09,0-19.63,0-.35,0-.7-.37-1.14-.81C533.6,704.86,540.94,704.84,548.56,704.87Z" transform="translate(-286.24 -264.38)"/><path class="cls-9" d="M454.78,486.91c.73-2.15,2.1-1.52,3.56-.29A14,14,0,0,1,454.78,486.91Z" transform="translate(-286.24 -264.38)"/><path class="cls-24" d="M435.5,653.54a16.4,16.4,0,0,1-2.85,2A16.4,16.4,0,0,1,435.5,653.54Z" transform="translate(-286.24 -264.38)"/><path class="cls-17" d="M558.54,521.82l.51.93a1.91,1.91,0,0,1-.66-.86C558.57,521.78,558.54,521.82,558.54,521.82Z" transform="translate(-286.24 -264.38)"/><path class="cls-24" d="M466.11,655.38A1.89,1.89,0,0,1,465,655,1.82,1.82,0,0,1,466.11,655.38Z" transform="translate(-286.24 -264.38)"/><path class="cls-17" d="M558.18,520.94c.22.11.32.32.39.7,0,.18,0,.14,0,.12a1.16,1.16,0,0,1-.73-.28A.67.67,0,0,1,558.18,520.94Z" transform="translate(-286.24 -264.38)"/><path class="cls-21" d="M664,396.76c-.15.12-.4.07-.71-.17C663.49,396.47,663.72,396.52,664,396.76Z" transform="translate(-286.24 -264.38)"/><path class="cls-2" d="M328.73,418.94a9.34,9.34,0,0,1,.58,2l-.7.09A12.88,12.88,0,0,1,328.73,418.94Z" transform="translate(-286.24 -264.38)"/><path class="cls-20" d="M691.08,556.07c0,.48.09,1,.17,1.63-1.76,13.83-2.76,27.63-5.58,41.06-2.25,10.76-6.52,21.12-10.29,31.52-1.18,3.23-3.67,6-5.56,9l-1.39-.73c8.12-17.06,13-35.06,16.54-53.86a16.37,16.37,0,0,0,.36-3.38,2.3,2.3,0,0,1,.28-1.18,14.35,14.35,0,0,0,.3-3.36c0-.11,0-.22.22-.56,1.18-6.07,2.23-11.89,2.9-17.76.53-4.63.59-9.32.86-14a14.62,14.62,0,0,1,.5,4.12C690.57,551.07,690.85,553.57,691.08,556.07Z" transform="translate(-286.24 -264.38)"/><path class="cls-23" d="M691.14,555.85c-.29-2.28-.57-4.78-.75-7.29a14.62,14.62,0,0,0-.5-4.12c-.27,4.67-.33,9.36-.86,14-.67,5.87-1.72,11.69-2.86,17.59.52-8.87,1.31-17.8,2-26.73q1.5-18.43,2.9-36.86a2.71,2.71,0,0,0-.4-1.39,14.4,14.4,0,0,1,.12-3.18c2.21,2.13,2.57.14,3-.88.91-2.07,1.6-4.25,2.58-6.46-1.11,8.35-2.41,16.78-3.69,25.51-.12,1.64-.25,3-.4,4.74a4,4,0,0,0,.06.71c-.06,1.55-.13,3.09-.22,5.12,0,.77,0,1,0,1.32-.16,2.85-.32,5.7-.72,8.94a19,19,0,0,0-.33,3.38c0,1.79,0,3.59,0,5.61M691,530.47l-.24-.9h-.5v12.51l.74.06Z" transform="translate(-286.24 -264.38)"/><path class="cls-23" d="M656.79,572.57a11,11,0,0,1-.64-3.08c0-8.74,0-17.48,0-26.23h-1.19c-.25,6.19-.33,12.4-.79,18.58-.38,5.15-1.21,10.26-2.07,15.47,3.25-25.42,1.37-50.72-3-75.94C652.36,507.58,659.29,550.93,656.79,572.57Z" transform="translate(-286.24 -264.38)"/><path class="cls-23" d="M655.38,450.43c-.63-2.17-1.3-4.59-1.81-7.05-.19-.91,0-1.9-.63-2.84,0,3.68-.43,7.42.08,11,1.92,13.58,4.16,27.12,6.25,40.68.44,2.82.8,5.64,1,8.65-6.83-24.95-12.23-65.62-5.87-73C654.74,434.81,655.07,442.48,655.38,450.43Z" transform="translate(-286.24 -264.38)"/><path class="cls-23" d="M657.42,467.23c-.82-4.76-1.58-9.8-2.15-15C656.13,457,656.8,462,657.42,467.23Z" transform="translate(-286.24 -264.38)"/><path class="cls-23" d="M660.61,503.33c.87,2.14,1.79,4.54,2.57,7a9,9,0,0,1,0,2.52C662.33,510,661.48,506.78,660.61,503.33Z" transform="translate(-286.24 -264.38)"/><path class="cls-23" d="M658.55,471.16a15.21,15.21,0,0,1-1.1-2.86A16.23,16.23,0,0,1,658.55,471.16Z" transform="translate(-286.24 -264.38)"/><path class="cls-23" d="M685.24,581.51a10.86,10.86,0,0,1-.19,2.91A10.42,10.42,0,0,1,685.24,581.51Z" transform="translate(-286.24 -264.38)"/><path class="cls-23" d="M685.85,577a11.14,11.14,0,0,1-.16,2.91A11.59,11.59,0,0,1,685.85,577Z" transform="translate(-286.24 -264.38)"/><path class="cls-23" d="M651.65,578.88a3.94,3.94,0,0,1-.11,1.66A4.12,4.12,0,0,1,651.65,578.88Z" transform="translate(-286.24 -264.38)"/><path class="cls-23" d="M650.39,586a1.42,1.42,0,0,1,0,1A1.36,1.36,0,0,1,650.39,586Z" transform="translate(-286.24 -264.38)"/><path class="cls-23" d="M651,582.78a1.33,1.33,0,0,1,0,1C650.9,583.54,650.92,583.26,651,582.78Z" transform="translate(-286.24 -264.38)"/><path class="cls-26" d="M486.59,560.34c3.33-8.5,6.55-16.78,10.07-25.82,10.26,21.56,20.13,42.28,30.35,63.77-18.35.69-36,1.07-54.57-.13C477.3,585.16,481.89,572.87,486.59,560.34Z" transform="translate(-286.24 -264.38)"/><path class="cls-15" d="M638.42,471.64c.21,7.33.25,14.87.24,22.7a11.07,11.07,0,0,1-.6-3C638.08,484.81,638.17,478.32,638.42,471.64Z" transform="translate(-286.24 -264.38)"/><path class="cls-8" d="M632.26,404.68a12.23,12.23,0,0,1,2.2-2.51A12.54,12.54,0,0,1,632.26,404.68Z" transform="translate(-286.24 -264.38)"/><path class="cls-8" d="M629.85,406.76a3.33,3.33,0,0,1,.94-1.12A3.43,3.43,0,0,1,629.85,406.76Z" transform="translate(-286.24 -264.38)"/><path class="cls-8" d="M642.13,396.43a2.15,2.15,0,0,1,.88-.63A2.07,2.07,0,0,1,642.13,396.43Z" transform="translate(-286.24 -264.38)"/><path class="cls-8" d="M631.2,405.49c0-.23.28-.49.69-.81A1.67,1.67,0,0,1,631.2,405.49Z" transform="translate(-286.24 -264.38)"/><path class="cls-8" d="M640.17,397.71c.08-.22.37-.46.85-.76A2.17,2.17,0,0,1,640.17,397.71Z" transform="translate(-286.24 -264.38)"/><path class="cls-8" d="M634.83,402.11c-.05-.15.08-.36.38-.65C635.25,401.6,635.14,401.82,634.83,402.11Z" transform="translate(-286.24 -264.38)"/><path class="cls-13" d="M608.31,517.27c.06-.23.25-.34.44-.46a1.56,1.56,0,0,1,.06.63C608.64,517.53,608.55,517.46,608.31,517.27Z" transform="translate(-286.24 -264.38)"/><path class="cls-8" d="M638.54,398.91c0-.15.16-.34.54-.61C639.1,398.43,638.92,398.65,638.54,398.91Z" transform="translate(-286.24 -264.38)"/><path class="cls-8" d="M645.78,397.93c.06.16-.08.37-.38.67C645.35,398.46,645.46,398.22,645.78,397.93Z" transform="translate(-286.24 -264.38)"/><path class="cls-8" d="M646.47,397.39c.16.27,0,.43-.33.54C646.09,397.76,646.19,397.55,646.47,397.39Z" transform="translate(-286.24 -264.38)"/><path class="cls-8" d="M628.41,408c0-.12.11-.3.4-.53C628.84,407.57,628.7,407.74,628.41,408Z" transform="translate(-286.24 -264.38)"/><path class="cls-8" d="M625.75,409.92c0-.12.15-.28.48-.49C626.24,409.55,626.08,409.71,625.75,409.92Z" transform="translate(-286.24 -264.38)"/><path class="cls-8" d="M627.58,408.6c0-.14.17-.32.54-.56C628.13,408.17,628,408.37,627.58,408.6Z" transform="translate(-286.24 -264.38)"/><path class="cls-27" d="M650,342.45l2.85-2.11c.92.62,1.8,1.23,2.89,1.92.2.09.21.06.27.23a2.32,2.32,0,0,0,.57.57s.11-.16.1.08a3.74,3.74,0,0,0,.75,1s0,0,0,0c4.91,9.57,4.89,19.2-.14,28.64-1.13,2.12-3.46,3.6-5.44,5.48-3.45.28-6.16-.47-7.36-4.48A42,42,0,0,1,646.76,347s-.07-.08.1-.17a4.17,4.17,0,0,0,.57-1s0-.08.18-.23c.67-.9,1.18-1.64,1.69-2.39,0,0,0-.06.17-.14a.79.79,0,0,0,.46-.55A0,0,0,0,1,650,342.45Z" transform="translate(-286.24 -264.38)"/><path class="cls-4" d="M646.53,347c-3.3,8.52-4.4,17.27-2.19,26.59-.56-.08-1.61-.37-1.65-.76C641.8,363.92,641,355,646.53,347Z" transform="translate(-286.24 -264.38)"/><path class="cls-4" d="M649.05,343.08a8.77,8.77,0,0,1-1.41,2.45A8.43,8.43,0,0,1,649.05,343.08Z" transform="translate(-286.24 -264.38)"/><path class="cls-4" d="M647.21,345.76a1.32,1.32,0,0,1-.3,1.05A1.32,1.32,0,0,1,647.21,345.76Z" transform="translate(-286.24 -264.38)"/><path class="cls-4" d="M649.75,342.46c.14.21,0,.37-.25.55C649.44,342.87,649.5,342.66,649.75,342.46Z" transform="translate(-286.24 -264.38)"/><path class="cls-22" d="M622.11,347.53a.28.28,0,0,1,.31.14C622.28,347.66,622.14,347.65,622.11,347.53Z" transform="translate(-286.24 -264.38)"/><path class="cls-16" d="M603.35,431.25c.12,1.35.21,2.7.29,3.89l-3.51,2c.89,1.46,1.68,3,2.69,4.36a13,13,0,0,0,2.46,2c-2.88,1.95-3.93,3.91-.37,5.83-3.08,1.84-3.08,1.91.09,4.8-3.41,2.25-.66,4.88-.28,7.32s.6,4-1.68,5.56c-.77.54-.52,2.57-.85,4.62-.91-.92-2.37-1.74-2.75-2.91a16.33,16.33,0,0,1-.75-6.32c.37-4.07-1.76-6.54-4.62-8.82a11.59,11.59,0,0,1-1.88-2.68,16.65,16.65,0,0,1,2.73-1.38c2.13-.67,2.71-2.89.47-5.5s-1.18-5.24-.66-7.93c.07-.31.09-.79.29-.89,2.56-1.31,5.15-2.57,8-3.88C603.32,431.19,603.32,431.25,603.35,431.25Z" transform="translate(-286.24 -264.38)"/><path class="cls-16" d="M596.43,425.21a24.43,24.43,0,0,1,2.07-3.45l2.4,4.38-1,.77C598.8,426.41,597.68,425.9,596.43,425.21Z" transform="translate(-286.24 -264.38)"/><path class="cls-23" d="M673.62,530.56c-1.32-1.55-2.45-3.39-.31-5.51A36.8,36.8,0,0,1,673.62,530.56Z" transform="translate(-286.24 -264.38)"/><path class="cls-8" d="M634,392a5.94,5.94,0,0,1-1.53.86A5.88,5.88,0,0,1,634,392Z" transform="translate(-286.24 -264.38)"/><path class="cls-16" d="M692.42,538.1a1.92,1.92,0,0,1-.21-1.22c.44-.93.81-1.66,1.2-2.43a1.86,1.86,0,0,1,.56-.11c1.7.17,4.71,0,4.88.62a22.8,22.8,0,0,1,.88,9.11c-.14,1-3.39,1.63-5.3,2.12-.23.06-1.21-1.78-1.41-2.82C692.7,541.71,692.74,540,692.42,538.1Z" transform="translate(-286.24 -264.38)"/><path class="cls-16" d="M698.24,557.27a23.91,23.91,0,0,1,2.17-3l1.38,7C700.43,559.76,699.35,558.63,698.24,557.27Z" transform="translate(-286.24 -264.38)"/><path class="cls-16" d="M691.38,550.18a7.16,7.16,0,0,1,.09-3A7.16,7.16,0,0,1,691.38,550.18Z" transform="translate(-286.24 -264.38)"/><path class="cls-16" d="M700.5,550.82a7.81,7.81,0,0,1-.37-1.9l.5,0A10.3,10.3,0,0,1,700.5,550.82Z" transform="translate(-286.24 -264.38)"/><path class="cls-16" d="M701.72,562.82" transform="translate(-286.24 -264.38)"/><path class="cls-16" d="M692.49,531.43c-.1.05-.16-.25-.12-.41s.24.06.32.17S692.62,531.31,692.49,531.43Z" transform="translate(-286.24 -264.38)"/><path class="cls-19" d="M663,357.09a1.24,1.24,0,0,1-.29-.7s.15-.11.23-.17A2,2,0,0,1,663,357.09Z" transform="translate(-286.24 -264.38)"/><path class="cls-4" d="M657.37,344c-.24-.05-.49-.31-.81-.74A1.68,1.68,0,0,1,657.37,344Z" transform="translate(-286.24 -264.38)"/><path class="cls-4" d="M656.52,342.87c-.16.06-.34-.07-.56-.36C656.11,342.46,656.31,342.57,656.52,342.87Z" transform="translate(-286.24 -264.38)"/><path class="cls-20" d="M691,530.73v11.42l-.74-.06V529.58h.5A8.66,8.66,0,0,1,691,530.73Z" transform="translate(-286.24 -264.38)"/></svg>