<?xml version="1.0" encoding="utf-8"?>
<!-- Generator: Adobe Illustrator 25.0.0, SVG Export Plug-In . SVG Version: 6.00 Build 0)  -->
<svg version="1.1" id="Layer_1" xmlns="http://www.w3.org/2000/svg" xmlns:xlink="http://www.w3.org/1999/xlink" x="0px" y="0px"
	 viewBox="0 0 1080 824" style="enable-background:new 0 0 1080 824;" xml:space="preserve">
<style type="text/css">
	.st0{fill:#E6E0BB;}
	.st1{fill:#DDA134;}
	.st2{fill:#E1A946;}
	.st3{fill:#1E3E2D;}
	.st4{fill:#21402F;}
	.st5{fill:#E5B343;}
	.st6{fill:#234230;}
	.st7{fill:#FDFDFD;}
	.st8{fill:#F3F2EC;}
	.st9{fill:#1E3B2B;}
	.st10{fill:#FBF6EC;}
	.st11{fill:#E2B25B;}
	.st12{fill:#FEFEFE;}
	.st13{fill:#0B281B;}
	.st14{fill:#1D3E2B;}
	.st15{fill:#203F2D;}
	.st16{fill:#20402E;}
	.st17{fill:#1E3F2C;}
	.st18{fill:#E6B445;}
	.st19{fill:#E7B647;}
	.st20{fill:#E5BD46;}
	.st21{fill:#EAC04A;}
	.st22{fill:#2D473A;}
	.st23{fill:#E1AB4B;}
	.st24{fill:#FBFCFB;}
	.st25{fill:#F8F9F8;}
	.st26{fill:#E0A949;}
	.st27{fill:#E3AD4F;}
	.st28{font-family:'Jameel-Noori-Nastaleeq';}
	.st29{font-size:114.8442px;}
</style>
<g>
	<path class="st0" d="M247.1,549.4c0.1,0.1,0.2,0.2,0.3,0.3c-2.4,0.3-4.8,0.6-7.6,1c-4.9,0.1-9.5,0.1-14.2,0.1
		c-1.3-0.2-2.6-0.3-4-0.6c-0.1-0.2-0.1-0.3,0.1-0.3C230.3,550.7,238.7,550.5,247.1,549.4z"/>
	<path class="st1" d="M225.8,550.9c4.5-0.1,9.1-0.1,13.9-0.1c0.1,0.1,0.1,0.4,0.1,0.4C235.2,551.1,230.6,551.1,225.8,550.9z"/>
	<path class="st2" d="M345.7,434c0.5-0.8,0.9-1.6,1.3-2.3c0.2,0.1,0.4,0.2,0.5,0.3c0,2.1,0,4.2,0,6.3c0,0.8-0.1,1.7-0.2,2.5
		c-0.1,0.4-0.4,0.7-0.6,1.1c-0.4-0.3-1.1-0.6-1.1-0.9C345.5,438.8,345.6,436.5,345.7,434z"/>
	<path class="st2" d="M343.9,393.8c-0.4,0.2-0.8,0.5-1,0.4c-1-0.6-1-4,0.2-5.1C343.3,390.7,343.6,392.2,343.9,393.8z"/>
	<path class="st2" d="M347,417.8c0.2,0.3,0.3,0.6,0.3,0.9c-0.1,0.4-0.3,0.8-0.5,1c-0.1,0.1-0.5-0.1-0.8-0.2c0.1-0.4,0.2-0.8,0.3-1.1
		C346.4,418.2,346.7,418,347,417.8z"/>
	<path class="st2" d="M345.8,408.5c0.4-0.1,0.6-0.2,0.9-0.2c0,0.1,0.1,0.3,0.1,0.4c-0.4,0.2-0.7,0.3-1.1,0.5
		C345.7,409,345.7,408.8,345.8,408.5z"/>
	<path class="st2" d="M343.4,455c0,0.2-0.1,0.3-0.3,0.4c0,0-0.1-0.1-0.1-0.1C343.1,455.1,343.2,455,343.4,455z"/>
	<g>
		<path class="st2" d="M136.2,515c4.7,3.5,9.3,7.1,14.1,10.5c8,5.6,16.5,10.3,25.7,14.3c0.4,0.2,0.6,0.2,0.9,0.4
			c0.3,0.2,0.6,0.2,0.9,0.4c1.9,0.9,3.8,1.7,5.7,2.5c0.1-0.2,0.1-0.3,0.2-0.5c-2-0.9-4-1.7-6-2.6c-0.2-0.1-0.4-0.1-0.6-0.2
			c-0.3-0.1-0.5-0.2-0.7-0.3c-5.4-3.2-11-6.1-16.2-9.7c-15.9-11-29.2-24.6-39.5-41.1c-2.2-3.6-4.7-7.1-7.3-10.4
			c-1.5-1.9-3.4-3.5-5.2-5.1c-2.7-2.5-5.9-3.7-9.6-4.1c-5.9-0.6-10.6-3.5-13.5-8.7c-1.9-3.3-3.3-6.9-4.7-10.5
			c5.7,1.2,11,2.7,15.9,5.6c4.3,2.6,5.7,6.7,6.7,11.2c0.2,1.2,0.7,1.8,1.8,2.4c2.1,1.1,4,2.4,6.4,3.9c-0.7-1.6-1.4-2.8-1.9-4.1
			c-3-7.1-5.9-14.3-8.9-21.5c-1.6-4.1-4.3-7.1-8.3-9c-6.5-3.1-9.4-8.6-10-15.6c-0.2-2,0-4.1,0-6.3c3,2.6,6.1,5,8.8,7.6
			c3.6,3.4,5.1,7.8,4.5,12.8c-0.1,0.5,0,1.1,0.3,1.4c1.3,1.3,2.8,2.4,4,3.5c-0.5-3.7-1.1-7.8-1.6-11.9c-0.7-6.2-1.8-12.4-2-18.6
			c-0.6-15.2,2.6-29.7,8.6-43.6c11.5-26.9,30.1-47.2,56.2-60.7c0.7,0.1,1.2,0.1,1.9,0.1c0,0.5,0.1,0.9,0,1.4
			c-4.4,2.5-8.8,4.8-12.9,7.5c-0.9,0.6-2.8,1.5-2,3.5c-1.1,1.1-2.2,2.1-3.3,3.1c-2.7,2.4-5.5,4.7-8,7.3c-2.9,2.9-5.5,6.1-8.3,9.3
			c-0.5,0.5-0.8,1-1.2,1.5c-0.4,0.5-0.7,1-1.1,1.5c-0.4,0.5-0.7,1-1.1,1.5c-0.3,0.4-0.5,0.7-0.8,1.1c-0.2,0.3-0.4,0.6-0.5,0.9
			c0,0,0,0-0.1,0c-0.2,0.3-0.3,0.6-0.4,0.9c-2,3.2-3.9,6.3-6,9.5c-0.1,0.3-0.2,0.6-0.2,0.8c0,0,0,0-0.1,0c-0.2,0.3-0.2,0.5-0.3,0.7
			c0,0,0,0-0.1,0c-0.2,0.3-0.2,0.5-0.3,0.7c0,0,0,0-0.1,0c-0.3,0.4-0.5,0.8-0.6,1.1c0,0,0,0-0.1,0c-0.3,0.5-0.5,1-0.6,1.5
			c0,0,0,0-0.1,0c-0.2,0.4-0.2,0.7-0.3,1.1c0,0,0,0-0.1,0c-0.2,0.3-0.2,0.5-0.3,0.7c0,0,0,0-0.1,0c-0.8,1.6-1.5,3.3-2.1,4.9
			c0,0,0,0-0.1,0c-1.5,3.8-2.9,7.5-4.4,11.3c-0.2,0.4-0.3,0.7-0.4,1.1c0,0,0,0-0.1,0c-0.7,0.1-1.2,0.2-1.8,0.2
			c-0.1-0.1-0.2-0.2-0.3-0.2c0,0.1,0,0.1,0,0.2c-0.6,2.4-1.2,4.8-1.9,7.4c-0.7,3.7-1.4,7.2-2.1,10.8c-1.6,9-1.8,18-0.6,27
			c0,0.3,0.3,0.5,0.6,0.7c0.4-2.2,0.8-4.3,0.9-6.4c0.2-5.5,0.3-10.9,0.4-16.4c0-0.9,0.3-1.8,0.5-2.9c0.2,1,0.4,1.7,0.5,2.6
			c-0.1,3.7-0.2,7.2-0.3,10.8c0,1.3,0.3,2.5,0.4,3.8c0.2,2.2,0.5,4.4,0.7,6.8c0.1,1.1,0.2,2.1,0.4,3.5c0.5-1.6,0.7-2.8,1.2-3.9
			c1.2-2.6,2.5-5.1,3.8-7.8c1-1.4,1.9-2.8,2.8-4.2c-0.2-0.1-0.4-0.2-0.6-0.4c-0.8,1.4-1.5,2.8-2.4,4.2c-1.6-4.4,0-8.2,2.6-11.5
			c4-5.2,9.9-7.6,15.9-10.4c-0.3,1.7-0.5,3.2-0.7,4.6c-1.2,7.9-4.5,14.2-12.5,17.2c-2.9,1.1-4.8,3.5-6.2,6.3
			c-2.3,4.8-3.8,9.8-3.2,15.4c0.7,5.8,2,11.3,3.8,16.8c0.2-1.3,0.1-2.6,0.2-3.9c0.1-2.2,0.3-4.3,0.3-6.5c0.1-5,1.4-9.5,5.7-12.4
			c3.1-2.1,6.6-3.6,10-5.3c0.2,0.2,0.4,0.4,0.7,0.6c-1.1,3.5-2,7-3.4,10.4c-1.2,3-3.3,5.2-6,7c-5.3,3.4-7,7.2-5.8,13.4
			c1.7,8.9,5.5,16.9,10.2,24.7c0.1,0.2,0.2,0.3,0.3,0.4c0-0.2-0.1-0.5-0.2-0.8c-0.7-3-1.4-5.9-2.2-8.8c-0.8-2.7-0.9-5.3,0.2-8.1
			c2-5.3,6.7-7.8,11.3-11.1c0,1.4,0,2.4,0,3.4c0.2,6.7-1.1,12.8-7.1,17c-0.7,0.5-1.1,1.7-1.2,2.6c-0.1,1.3,0,2.8,0.3,4.1
			c1.4,5.9,4.6,10.9,8.1,15.7c10.5,14.3,23.5,25.8,38.6,35.1c8.6,5.3,17.7,9.8,27.5,13c0.9,0.3,1.7,0.5,2.6,0.8c0.1,0,0.2,0,0.3,0.1
			c0.3,0.1,0.5,0.1,0.8,0.2c0.3,0.1,0.4,0.1,0.7,0.2c0.3,0.1,0.5,0.1,0.8,0.2c0.3,0.1,0.4,0.1,0.7,0.2c0.1,0,0.2,0.1,0.2,0.1
			s0.2,0,0.3,0c0.4,0.1,0.7,0.2,1.1,0.3c6.2,1.1,12.2,2.1,18.4,3.2c1.4,0.3,2.7,0.4,4.1,0.7c4.7,0.2,9.4,0.3,14,0.3
			c0,0,0.1-0.3,0.2-0.5c2.6-0.4,5-0.7,7.6-1c12.3-1.6,23.8-5.1,34.7-10.7c12.7-6.5,23.5-15.4,32.7-26.2c3.8-4.5,6.9-9.5,10.4-14.3
			c2.8-5.1,5.5-10.2,8.3-15.3c2.3-0.8,2.1,1.2,2.8,2.3c-3.3,8.1-7.6,15.7-12.6,22.9c-12.3,17.5-28.1,30.7-48,38.9
			c-12.6,5.2-25.8,8.1-39.4,8.9c-24.9,1.3-48.3-4-70-16.2c-11.5-6.4-21.5-14.8-30.3-24.7C136.1,515.1,136.2,515,136.2,515
			 M98.5,464.7c0.1,0,0.2,0,0.2,0c-0.1-0.1-0.2-0.1-0.3-0.4c-0.2-0.1-0.4-0.2-0.6-0.4c-0.1-0.1-0.2-0.2-0.5-0.4
			c-0.4-0.3-0.8-0.6-1.3-0.8c-0.1,0.1-0.2,0.3-0.2,0.4c0.5,0.3,0.9,0.6,1.5,1c0.1,0.1,0.2,0.1,0.5,0.3
			C98.1,464.4,98.3,464.5,98.5,464.7 M93.3,460.7l-0.1,0c0,0,0.2,0.1,0.2,0.3c0.3,0.2,0.6,0.5,1,0.9c0.3,0.2,0.7,0.4,1,0.6
			c0.1-0.1,0.1-0.2,0.2-0.3c-0.4-0.3-0.7-0.5-1.3-1C94,461.1,93.6,460.9,93.3,460.7 M123.2,466.3c0.1-0.4,0.3-0.8,0.4-1.2
			c-0.1,0-0.2-0.1-0.4-0.1c-0.1,0.4-0.3,0.9-0.6,1.4c0,0.2,0,0.3,0,0.5C122.8,466.8,122.9,466.7,123.2,466.3 M186.7,543.9
			c-0.8-0.3-1.6-0.7-2.4-1c-0.1,0.1-0.1,0.3-0.2,0.4c0.7,0.3,1.5,0.6,2.4,1c1.3,0.4,2.6,0.9,4,1.3c0.1-0.2,0.1-0.4,0.2-0.6
			C189.4,544.7,188.2,544.4,186.7,543.9 M121.3,469.9c-0.2,1-0.5,2.1-0.7,3.1c0.1,0,0.3,0,0.4,0.1c0.5-1.8,1.1-3.6,1.6-5.3
			c-0.1,0-0.3-0.1-0.4-0.1C121.9,468.3,121.7,468.9,121.3,469.9 M192.6,546.1c0.1,0,0.2,0,0.3,0.1
			C192.8,546.1,192.7,546.1,192.6,546.1 M191.5,545.6c0,0.1,0,0.1,0.1,0.2C191.6,545.8,191.6,545.7,191.5,545.6z"/>
		<path class="st3" d="M128.2,339.1c2.7-3.1,5.3-6.3,8.2-9.2c2.5-2.6,5.3-4.9,8-7.3c1.1-1,2.1-2,3.4-3.1c0.5-0.4,0.9-0.6,1.3-0.8
			c4.4-3.1,8.8-6.3,13.4-9.4c4.1-2.1,8-4.3,12-6.4c0,0,0,0,0.1,0c1.2-0.5,2.2-1,3.3-1.5c0,0,0,0,0.1,0c2.3-0.9,4.5-1.8,6.6-2.6
			c0,0,0,0,0.1,0c0.4-0.1,0.7-0.3,1-0.4c0,0,0,0,0.1,0c3.1-0.9,6-1.8,9.1-2.6c1.5-0.3,2.8-0.5,4.2-0.8c5.5-0.9,11.1-1.7,16.6-2.6
			c14.2-0.7,28.3,0.2,42,4.5c3.4,1.1,6.7,2.4,10.1,3.8c2.3,1.4,4.5,2.5,6.7,3.6c0,0.1-0.1,0.2-0.1,0.3c-0.8,0-1.6-0.1-2.6-0.2
			c-1.7-0.6-3.2-1.3-4.8-1.9c-10.5-4-21.4-6.2-32.6-7c-0.2-0.3-0.4-0.5-0.7-0.5c-3.3,0-6.7,0-10,0c-0.3,0-0.6,0.4-1.1,0.7
			c-7.6,1.1-15.2,1.6-22.5,3.4c-29.8,7.2-53.4,24-71.4,48.7c-7.4,10.1-13.2,21.1-18,32.8c-0.3,0.3-0.7,0.6-0.8,0.9
			c-1.1,3.2-2.2,6.5-3.1,9.8c-0.7,2.4-1.3,4.9-1.9,7.3c-0.2,0-0.3-0.1-0.5-0.1c0.5-3.2,0.7-6.4,1.5-9.5c1.7-6.2,3.4-12.5,5.5-18.6
			c2.8-7.8,6.6-15,11.1-21.9c0.4-0.6,0.5-1.3,0.8-2.1c0-0.3,0-0.4,0-0.6c0,0,0,0,0.1,0.1c0.2,0,0.3-0.1,0.6-0.2
			c0.3-0.4,0.5-0.8,0.7-1.1c0,0,0,0,0.1,0c0.2-0.2,0.3-0.4,0.4-0.8c0.2-0.3,0.4-0.5,0.7-0.7c0.3-0.4,0.5-0.8,0.8-1.1c0,0,0,0,0.1,0
			c0.2-0.2,0.2-0.3,0.3-0.4c0,0,0,0,0.1,0c0.2-0.2,0.3-0.4,0.4-0.7c0.2-0.3,0.4-0.5,0.7-0.7c0.1,0,0.2,0,0.2-0.1c0-0.1,0-0.2,0-0.4
			C128.3,339.2,128.2,339.1,128.2,339.1z"/>
		<path class="st2" d="M336.5,485.4c-0.7-0.9-0.5-3-2.9-2.3c1.5-4.3,3.3-8.5,4.6-12.7c5.3-17,7.5-34.4,6.5-52.2
			c-0.8-14.1-3-28-7.8-41.4c-8.2-22.5-21-41.8-39.4-57.3c-0.1-0.1,0-0.1-0.1-0.2c-0.2,0-0.3,0-0.4,0c0,0,0,0,0-0.1
			c0-0.1-0.1-0.3-0.1-0.4c-0.1-0.3-0.2-0.5-0.3-0.7c2.3,1.8,4.8,3.5,7,5.6c22.3,20.9,36.8,46.2,42.6,76.2c2.7,13.9,3.3,28,1.7,42.1
			c-1.4,12.2-3.7,24.3-8.5,35.8c-0.8-0.4-1.4-0.9-2-1.3c-0.4,0.5-0.8,1-1.1,1.5c-0.2,0.4-0.4,0.8-0.4,1.2c-0.1,0.7-0.4,1.6-0.1,2.1
			c0.6,1.2,1.6,0.2,2.4,0C337.7,482.7,337.1,484,336.5,485.4 M345.6,434.2c-0.1,2.3-0.1,4.6-0.1,6.9c0,0.3,0.7,0.6,1.1,0.9
			c0.2-0.4,0.6-0.7,0.6-1.1c0.2-0.8,0.2-1.7,0.2-2.5c0-2.1,0-4.2,0-6.3c-0.2-0.1-0.4-0.2-0.5-0.3
			C346.5,432.5,346.1,433.2,345.6,434.2 M343,456.3c-0.6,2.2-1.2,4.4-1.7,6.7c-0.1,0.5,0.3,1.2,0.5,1.8c0.5-0.4,1.4-0.7,1.6-1.2
			C344,461.2,345,458.8,343,456.3 M343.9,393.7c-0.3-1.5-0.6-3-0.9-4.6c-1.2,1.1-1.2,4.5-0.2,5.1
			C343.1,394.3,343.5,394.1,343.9,393.7 M346.9,417.8c-0.2,0.2-0.5,0.4-0.6,0.7c-0.2,0.4-0.2,0.8-0.3,1.1c0.3,0.1,0.7,0.3,0.8,0.2
			c0.3-0.3,0.4-0.7,0.5-1C347.3,418.5,347.2,418.2,346.9,417.8 M345.7,408.6c0,0.2,0,0.4,0.1,0.6c0.4-0.2,0.7-0.3,1.1-0.5
			c0-0.1-0.1-0.3-0.1-0.4C346.4,408.3,346.2,408.4,345.7,408.6 M343.3,454.9c-0.1,0.1-0.2,0.2-0.3,0.3c0,0,0.1,0.1,0.1,0.1
			C343.2,455.3,343.3,455.2,343.3,454.9z"/>
		<path class="st4" d="M110.5,493.1c1.9,0.4,3.7,0.6,5.5,1.1c3.5,0.8,6.5,2.7,8.3,5.9c1.7,3.1,4.1,5.2,7.2,6.8
			c0.8,0.4,1.5,1,2.2,1.7c-4.8-2.3-10.1-1.4-15-2.7c-2.3-0.6-4.7-1.8-6.5-3.4c-3.3-2.9-6.1-6.3-9-9.9
			C105.6,492.8,108,492.9,110.5,493.1z"/>
		<path class="st5" d="M215.4,292.3c-5.4,0.9-10.9,1.7-16.4,2.6c-1.3,0.2-2.7,0.5-4.3,0.7c-3.2,0.9-6.2,1.7-9.1,2.6c0,0,0,0-0.1,0
			c-0.4,0.1-0.7,0.3-1,0.4c0,0,0,0-0.1,0c-2.3,0.9-4.5,1.8-6.6,2.6c0,0,0,0-0.1,0c-1.2,0.5-2.2,1-3.2,1.5c0,0,0,0-0.1,0
			c-2.9,1.3-5.6,2.6-8.4,3.9c0-0.1-0.1-0.2-0.1-0.3c-0.1-0.7-0.3-1.2-0.4-1.8c8.1-4.1,16.7-6.8,25.5-8.9
			C198.9,293.7,207,292.6,215.4,292.3z"/>
		<path class="st6" d="M296.7,318.2c0.1,0.2,0.2,0.4,0.2,0.7c-0.1,0.1-0.2,0.2-0.4,0.1c-2.1-1.5-3.9-3.1-6-4.3
			c-6.2-3.5-12.4-6.9-18.6-10.3c0.8,0,1.6,0.1,2.4,0.1c0-0.1,0.1-0.2,0.1-0.3c-2.2-1.1-4.4-2.3-6.6-3.5c8.1,3,15.6,7.3,22.6,12.4
			c1.8,1.3,3.5,2.8,5.4,4.3c0.3,0.2,0.4,0.3,0.5,0.3c0,0,0,0,0,0.1C296.5,318,296.6,318.1,296.7,318.2
			C296.7,318.2,296.7,318.2,296.7,318.2 M276.3,305.3c-0.1,0-0.3,0-0.4,0c0.2,0,0.3,0.1,0.6,0.3c0.1,0,0.3,0,0.4,0
			C276.7,305.5,276.6,305.5,276.3,305.3 M275.1,304.9C275.1,304.9,275.1,304.9,275.1,304.9 M280.3,307.5"/>
		<path class="st2" d="M338.3,481.3c-0.9,0.3-1.8,1.3-2.4,0.1c-0.3-0.5,0-1.4,0.1-2.1c0.1-0.4,0.2-0.9,0.4-1.2
			c0.3-0.5,0.7-1,1.1-1.5c0.6,0.4,1.2,0.9,1.9,1.4C339.1,479.1,338.7,480.1,338.3,481.3z"/>
		<path class="st5" d="M162.7,308.4c0-0.4-0.1-0.8-0.1-1.4c-0.6,0-1.1,0-1.7-0.1c0.9-0.6,1.9-1.1,3.1-1.6c0.7,0.4,1.2,0.8,1.7,1.1
			c0,0,0.1,0.1,0,0.2C164.7,307.4,163.8,308,162.7,308.4C162.8,308.5,162.7,308.4,162.7,308.4z"/>
		<path class="st2" d="M165.7,306.4c-0.5-0.2-1-0.6-1.6-1c0.2-0.3,0.6-0.5,1.1-0.7C165.5,305.2,165.6,305.7,165.7,306.4z"/>
		<path class="st2" d="M136.1,515.2c-0.1,0-0.2-0.1-0.2-0.2c0.1,0,0.2,0,0.3,0C136.2,515,136.1,515.1,136.1,515.2z"/>
		<path class="st2" d="M296.7,318.1c-0.1,0-0.2,0-0.3-0.2C296.4,317.8,296.5,317.9,296.7,318.1z"/>
		<path class="st2" d="M296.3,317.7c-0.1,0-0.2,0-0.4-0.2C296,317.5,296.1,317.5,296.3,317.7z"/>
		<path class="st7" d="M271.7,304.3c6.4,3.4,12.6,6.8,18.8,10.3c2.1,1.2,4,2.8,6.1,4.4c0.3,0.2,0.4,0.2,0.5,0.2c0,0,0,0,0,0.1
			c0.2,0.2,0.3,0.2,0.5,0.3c0.1,0,0.1,0,0.1,0l-0.1-0.1c18.3,15.5,31.2,34.8,39.4,57.3c4.9,13.4,7,27.3,7.8,41.4
			c1,17.8-1.2,35.2-6.5,52.2c-1.3,4.3-3.1,8.4-4.7,12.8c-2.7,5.2-5.4,10.2-8.2,15.2c-0.5-0.5-0.9-0.9-1.3-1.4
			c1.6-1.9,1.6-1.9,0.1-3.2c-0.2,0.7-0.3,1.3-0.6,1.9c-0.2,0.4-0.6,0.7-0.9,0.9c0.2-1.3,0.4-2.4,0.6-3.7c0.2-1.3,0.4-2.5,0.4-3.7
			c-0.4-6.4-0.8-12.7-1.2-19.2c0-0.3,0-0.5,0.1-0.8c-1.1-12.7-2.3-25.2-3.4-37.9c0-0.8-0.1-1.5-0.2-2.3c0.5-1.5,0.9-2.9,1.3-4.4
			c0.7-1.8,2.1-3.4,1-5.2c-1-1.8-2.4-3.3-3.7-5c-0.2-0.4-0.4-0.7-0.7-1.2c-7-11.2-11.8-23-13-36.1c-0.3-3.2-1.5-6.1-4.3-8.1
			c-0.2-0.1-0.3-0.2-0.5-0.2c0,0,0,0,0-0.1c-0.5-0.6-1-1-1.5-1.6c-0.3-0.2-0.5-0.4-0.8-0.6c-0.5-0.4-0.9-0.6-1.5-1
			c-0.6-0.2-1-0.4-1.5-0.7c0-0.2-0.1-0.2-0.2-0.2c-0.2-0.3-0.3-0.4-0.5-0.7c-0.4-0.3-0.7-0.6-1.2-0.8c-0.7-0.3-1.2-0.5-1.8-0.9
			c-0.3-0.7-0.5-1.2-0.8-1.9c-0.1-0.4-0.2-0.6-0.1-0.5c1.5-0.3,2.9-0.5,4.4-0.8c0.9-0.8,1.9-1.4,2.5-2.3c2.9-4.7,4.2-9.8,3.4-15.4
			c-0.5-1.7-1.1-3.3-1.7-4.9c-1.5-2.1-3.6-2.7-5.9-3.2c-0.9-0.2-1.7-0.4-2.5-0.6c-9.1-1.6-16.8,3.3-19.1,12.3
			c-0.4,1.6-0.7,3.3-1.1,5c-0.3,1.4-0.6,2.8-0.9,4.2c-0.9,3.6-1.7,7-2.6,10.6c-0.6,1.1-1,2.2-1.6,3.3c-1.4,2-2.7,3.9-4.1,5.9
			c-1.4,1.6-1.2,3.2-0.1,4.9c0.4,5.6-0.6,10.8-1.7,16.1c-2.3,10.7-1.6,21,3.3,31.1c0,1.1,0.2,2.2,0,3.1c-1.8,7.2-5.6,13.3-10.7,18.6
			c-1.6,1.7-3.4,3.2-5.5,5.1c2.3-1,4.1-1.8,6.1-2.7c1.1-0.6,2.1-1,2.9-1.6c4.4-3.2,8.8-6.4,13.2-9.5c0.1,0.1,0.2,0.1,0.2,0.3
			c-4.1,8.4-8.4,16.4-15.3,22.8c-0.4,0.3-0.7,1.3-0.5,1.6c3,5.3,6,10.6,9.1,16c0.6,1,1.2,2,1.8,3c5.4,8.1,11.6,15.4,19.6,21.1
			c0.9,0.6,1.7,1.2,2.6,1.8c7.3,5.1,15.3,7.4,24.3,7.2c-13.5,14.4-30.7,25-49.3,30.4c-8.9,2.6-17.9,4-27.2,4.7
			c-4.4,0-8.7,0-13.1-0.1c-0.7,0-1.2,0-1.9-0.1c-4.4-0.6-8.7-1.1-13-1.7c-2.6-1.1-2.7-1.1-3,0.5c-0.2,0-0.3-0.1-0.6-0.3
			c-0.3-0.6-0.4-1-0.5-1.4c-0.1,0-0.3,0.1-0.4,0.1c0,0.4,0.1,0.8,0.1,1.2c-0.2,0-0.3-0.1-0.6-0.3c-0.3-0.4-0.5-0.6-0.6-0.8
			c-0.1,0.2-0.2,0.4-0.2,0.6c-0.1,0-0.1,0-0.3-0.2c-0.7-1.7-1.6-1.9-2.7-0.7c-9.7-3.1-18.7-7.6-27.4-12.9
			c-15.1-9.3-28.1-20.8-38.6-35.1c-3.5-4.8-6.7-9.8-8.1-15.7c-0.3-1.3-0.4-2.7-0.3-4.1c0.1-0.9,0.5-2.1,1.2-2.6
			c6-4.2,7.3-10.2,7.1-17c0-1,0-2,0-3.4c-4.6,3.3-9.3,5.8-11.3,11.1c-1,2.7-0.9,5.3-0.2,8.1c0.8,2.9,1.5,5.8,2.2,8.8
			c0,0.2-0.2,0.3-0.2,0.3c-4.7-7.7-8.5-15.7-10.2-24.6c-1.2-6.2,0.5-10,5.8-13.4c2.7-1.7,4.9-4,6-7c1.3-3.4,2.3-6.9,3.4-10.4
			c-0.2-0.2-0.4-0.4-0.7-0.6c-3.3,1.7-6.8,3.2-10,5.3c-4.3,2.9-5.7,7.4-5.7,12.4c0,2.2-0.3,4.3-0.3,6.5c-0.1,1.3,0,2.6-0.2,3.9
			c-1.7-5.5-3.1-11.1-3.8-16.8c-0.6-5.5,0.9-10.5,3.2-15.4c1.3-2.8,3.2-5.2,6.2-6.3c8.1-2.9,11.4-9.3,12.5-17.2
			c0.2-1.5,0.4-2.9,0.7-4.6c-6,2.8-11.9,5.2-15.9,10.4c-2.6,3.4-4.2,7.1-2.6,11.6c0.1,0.1,0.1,0.3,0.1,0.3c-1.2,2.6-2.5,5.1-3.7,7.7
			c-0.5,1.1-0.7,2.2-1.2,3.9c-0.2-1.5-0.3-2.4-0.3-3.6c0-1.3-0.1-2.4-0.1-3.6c0.4-5.6,0.4-11,1.1-16.4c1-8.3,3.6-16.1,6.3-24
			c4.6-11.7,10.5-22.7,17.9-32.8c18-24.7,41.5-41.4,71.4-48.7c7.3-1.8,14.9-2.3,22.7-3.4c4.1,0,7.8-0.1,11.6-0.1
			c11.2,0.7,22.1,2.9,32.6,6.9C268.5,303,270,303.7,271.7,304.3 M238.5,441.4c-0.1-0.1-0.1-0.2-0.3-0.6
			c-14.7-35.5-29.5-70.9-44.3-106.6c-0.4,1-0.8,1.9-1.2,2.7c-2.9,7.3-5.7,14.5-8.5,21.8c-11.9,30.6-23.8,61.3-35.8,91.9
			c-3,7.6-6.1,15.2-9.4,22.7c-2,4.4-5.7,7-10.2,8.5c-0.6,0.2-1.2,0.4-1.8,0.6c0,0.1,0.1,0.2,0.1,0.3c10.6,0,21.2,0,31.7,0
			c-0.3-0.4-0.7-0.5-1-0.6c-2.5-0.8-5.1-1.3-7.4-2.3c-2.5-1.1-3.8-3.3-3.6-6.1c0.2-2.5,0.6-5.1,1.5-7.5
			c11.8-31.1,23.7-62.3,35.5-93.4c1.6-4.1,3.3-8.2,5.1-12.6c1.4,3.1,2.6,5.9,3.8,8.7c6.9,16.2,13.8,32.4,20.7,48.6
			c0.3,0.7,1,1.2,1.6,1.6c3.3,2.3,6.9,4.3,10,6.8c5.4,4.2,9.2,9.8,13.1,15.6c0.1,0,0.3,0,0.2,0.2c0.2,0.1,0.3,0.3,0.5,0.4
			C238.7,442,238.6,441.8,238.5,441.4 M185.9,421.5c2.1,0.4,4.3,0.5,6.2,1.2c4.8,1.8,9.4,4,14.3,6.2c7.8,5.4,13.7,12.4,18.3,20.5
			c5,8.9,9.6,17.9,14.6,26.8c6.1,11.1,13.3,21.5,23.3,29.6c10,8.1,21.2,12.6,34.3,11.2c2.7-0.3,5.3-1.1,8-1.6
			c-3.6-0.4-7-0.5-10.3-1.3c-10.2-2.4-18.3-8.3-25.4-15.8c-8-8.5-13.9-18.4-19.3-28.7c-5.2-9.8-10.1-19.8-17-28.6
			c-7.3-9.3-15.7-17.2-27.1-21.2c-13.8-4.9-27.1-4.1-39.8,3.6c-0.7,0.4-1.1,1.2-1.7,1.8c0.1,0.1,0.2,0.3,0.3,0.4
			c4.2-2.4,8.8-3.4,13.8-4.1c0.6,0,1.3,0,2.3,0C182.3,421.4,184,421.4,185.9,421.5 M166.9,518.1c-0.6,0.4-1.1,0.7-1.8,1.1
			c0,0-0.1,0.1-0.4,0.2c-1.3,0.5-2.7,1.1-4,1.6c0,0.1,0.1,0.2,0.1,0.4c5.3,0,10.5,0,16.1,0.1c0.9,0,1.8,0,3,0c3.7,0,7.5,0,11.2,0
			c0-0.2,0-0.3,0-0.5c-2-0.5-4-1.1-6.1-1.7c0,0-0.2,0-0.3-0.2c-0.2-0.1-0.4-0.2-0.8-0.4c-3-1.9-4.3-4.6-3.9-8.1
			c0.2-1.4,0.4-2.7,0.9-4c1.8-5.1,3.7-10.1,5.4-15.1c0.4-1.1,0.9-1.5,2.1-1.5c5.3,0,10.6-0.2,16.2-0.3c5.6,0,11.3,0,17.1,0.1
			c0.3,0.6,0.6,1.1,0.9,1.7c2.9,6,5.9,11.9,8.7,18c2,4.4,1.9,8.4-3,10.5c-1.3,0.4-2.6,0.7-4,1.1c0,0.1,0,0.2,0.1,0.3
			c12.8,0,25.7,0,38.5,0c0-0.1,0-0.2,0-0.2c-2.5-0.7-5-1.3-7.7-2.1c-4.7-2.1-7.3-6.2-9.5-10.5c-3.2-6.3-6.3-12.6-9.4-18.9
			c-8.1-16.3-16.1-32.7-24.2-49c-1.9-3.8-3.8-7.6-7.3-10.3c-0.2,0.6-0.5,1.1-0.7,1.7c-4.6,11.6-9.1,23.2-13.7,34.8
			c-5.4,13.7-10.8,27.4-16.2,41.1C172.7,511.9,170.7,515.5,166.9,518.1 M118.1,450.2c-1,1-1.2,2.2-0.1,3c0.6,0.5,2,0.6,2.5,0.2
			c0.6-0.4,1-1.8,0.7-2.5C120.8,449.7,119.6,449.4,118.1,450.2z"/>
		<path class="st8" d="M322.8,496.7c0.3-0.4,0.7-0.7,0.9-1.1c0.3-0.6,0.4-1.2,0.6-1.9c1.5,1.3,1.5,1.3-0.1,3.2
			c0.4,0.4,0.7,0.9,1.2,1.5c-3.4,4.9-6.5,9.9-10.2,14.4c-9.1,10.8-20,19.7-32.7,26.2c-10.9,5.6-22.4,9-34.8,10.6
			c-0.3-0.1-0.4-0.2-0.3-0.3c3.4-0.7,6.7-1.2,9.9-2c27.8-7.3,49.6-22.9,64.6-47.6C322.3,498.9,322.4,497.8,322.8,496.7z"/>
		<path class="st9" d="M110.7,380.5c-2.6,7.8-5.2,15.7-6.2,23.9c-0.7,5.4-0.7,10.8-1.2,16.3c-1.3-15.4,0.7-30.4,5.5-45.1
			c0.9-2.6,1.7-5.3,2.6-7.9c0,0,0,0,0.1,0c0.8-1.6,1.5-3.2,2.1-4.9c0,0,0,0,0.1,0c0.2-0.3,0.2-0.5,0.3-0.7c0,0,0,0,0.1-0.1
			c0.2-0.4,0.2-0.7,0.3-1.1c0,0,0,0,0.1,0c0.3-0.5,0.5-1,0.6-1.5c0,0,0,0,0.1,0c0.3-0.4,0.5-0.8,0.6-1.2c0,0,0,0,0.1,0
			c0.2-0.3,0.2-0.5,0.3-0.7c0,0,0,0,0.1,0c0.2-0.3,0.2-0.5,0.3-0.7c0,0,0,0,0.1-0.1c0.2-0.3,0.2-0.6,0.2-0.8c1.9-3.1,3.9-6.2,6-9.4
			c0.2-0.2,0.3-0.2,0.4-0.2c-0.2,0.7-0.4,1.4-0.7,2c-4.5,6.9-8.4,14.2-11.1,21.9c-2.2,6.1-3.9,12.3-5.5,18.6c-0.8,3.1-1,6.3-1.5,9.5
			c0.2,0,0.3,0.1,0.5,0.1c0.6-2.4,1.2-4.9,1.9-7.3c1-3.3,2.1-6.5,3.1-9.8C110,381.1,110.4,380.8,110.7,380.5z"/>
		<path class="st1" d="M104.5,380.5c0.6-0.1,1.1-0.2,1.8-0.1c-1.2,7.6-2.4,15.1-3.7,22.7c-0.2-0.7-0.3-1.4-0.5-2.4
			c-0.2,1.1-0.5,2-0.5,2.9c-0.2,5.5-0.2,10.9-0.4,16.4c-0.1,2.1-0.5,4.2-0.9,6.2c0.4-12.9,0.1-25.8,2.7-38.6
			C103.5,385.1,104,382.8,104.5,380.5 M105,382c0,0.4,0,0.7,0,1.1c0.1,0,0.3,0,0.4,0C105.3,382.6,105.2,382.2,105,382z"/>
		<path class="st10" d="M102.9,387.6c-2.5,12.7-2.2,25.5-2.7,38.5c-0.1-0.1-0.4-0.3-0.4-0.5c-1.2-9-1-18,0.6-27
			c0.6-3.5,1.3-7.1,2.2-10.8C102.7,387.6,102.8,387.6,102.9,387.6z"/>
		<path class="st0" d="M102.6,403.1c1.3-7.7,2.6-15.2,3.8-22.9c0-0.2,0-0.2,0.1-0.2c0.2-0.4,0.3-0.7,0.4-1.1
			c1.4-3.7,2.8-7.4,4.3-11.2c-0.7,2.6-1.6,5.2-2.5,7.8c-4.8,14.7-6.7,29.8-5.5,45.3c0.2,1.1,0.3,2.2,0.3,3.4
			c-0.3-2.1-0.5-4.3-0.8-6.5c-0.1-1.3-0.5-2.5-0.4-3.8C102.4,410.4,102.5,406.8,102.6,403.1z"/>
		<path class="st5" d="M162.3,309.2c-4.4,3.1-8.8,6.3-13.3,9.4c-0.3,0.2-0.7,0.4-1.2,0.7c-1-1.9,0.9-2.8,1.8-3.4
			c4.1-2.7,8.5-5,12.9-7.5c0.1,0,0.2,0,0.1,0.1C162.6,308.8,162.4,309,162.3,309.2z"/>
		<path class="st8" d="M221.6,549.8c0,0,0,0.1,0,0.2c-6.1-0.9-12.1-1.9-18.3-3.1c-0.5-0.2-0.8-0.2-1.2-0.2l-0.2,0c0,0-0.1,0-0.2-0.1
			c0.3-1.6,0.4-1.6,2.8-0.4c0.2,0.4,0.4,0.6,0.7,0.7c3.3,0.7,6.6,1.3,10,2C217.5,549.2,219.6,549.5,221.6,549.8z"/>
		<path class="st0" d="M102.9,387.5c-0.2,0.1-0.2,0.1-0.4,0.1c0.5-2.4,1.1-4.8,1.7-7.3c0-0.1,0-0.1,0-0.2c0.1,0,0.2,0.1,0.3,0.2
			C104,382.8,103.5,385.1,102.9,387.5z"/>
		<path class="st0" d="M177.7,540c2,0.9,4,1.7,5.9,2.6c-0.1,0.2-0.1,0.3-0.2,0.5c-1.9-0.8-3.7-1.6-5.7-2.6
			C177.7,540.2,177.7,540.1,177.7,540z"/>
		<path class="st8" d="M108.8,416.4c-0.1,0.1-0.1-0.1-0.1-0.2c0.8-1.5,1.5-2.9,2.3-4.3c0.2,0.1,0.4,0.2,0.6,0.4
			C110.7,413.6,109.8,415,108.8,416.4z"/>
		<path class="st0" d="M121.4,469.7c0.3-0.8,0.6-1.5,0.8-2.2c0.1,0,0.3,0.1,0.4,0.1c-0.5,1.8-1.1,3.6-1.6,5.3c-0.1,0-0.3,0-0.4-0.1
			C120.9,472,121.1,470.9,121.4,469.7z"/>
		<path class="st8" d="M195.8,544.8c1-1.2,1.9-1.1,2.5,0.6C197.6,545.3,196.8,545.1,195.8,544.8z"/>
		<path class="st0" d="M113.5,362.9c-0.5,1.6-1.2,3.2-2,4.9C112,366.1,112.7,364.5,113.5,362.9z"/>
		<path class="st11" d="M186.9,544.1c1.3,0.3,2.5,0.6,3.8,1c-0.1,0.2-0.1,0.4-0.2,0.6c-1.3-0.4-2.6-0.9-3.9-1.4
			C186.7,544.1,186.8,544.1,186.9,544.1z"/>
		<path class="st0" d="M186.8,544c0,0.1-0.1,0.1-0.3,0.2c-0.9-0.3-1.6-0.5-2.3-0.8c0.1-0.1,0.1-0.3,0.2-0.4
			C185.1,543.2,185.9,543.5,186.8,544z"/>
		<path class="st8" d="M200.3,546.2c-0.1-0.5-0.1-0.9-0.2-1.3c0.1,0,0.3-0.1,0.4-0.1c0.1,0.4,0.3,0.8,0.4,1.4
			C200.8,546.3,200.6,546.2,200.3,546.2z"/>
		<path class="st0" d="M97.3,463.9c-0.5-0.3-0.9-0.6-1.4-0.9c0.1-0.1,0.2-0.3,0.2-0.4c0.4,0.3,0.8,0.6,1.3,1
			C97.4,463.8,97.3,463.9,97.3,463.9z"/>
		<path class="st0" d="M122.9,466.3c0.1-0.4,0.3-0.9,0.4-1.3c0.1,0,0.2,0.1,0.4,0.1c-0.1,0.4-0.3,0.8-0.6,1.2
			C123,466.4,122.9,466.3,122.9,466.3z"/>
		<path class="st0" d="M125.7,342.9c-0.2,0.2-0.3,0.4-0.6,0.7c-0.1,0.1-0.2,0.2-0.3,0.1c-0.1-0.1-0.2-0.2-0.2-0.2
			c0.3-0.5,0.6-0.9,1.1-1.4c0.1,0,0.2,0.1,0.2,0.2C125.9,342.6,125.8,342.8,125.7,342.9z"/>
		<path class="st0" d="M125.9,342.1c0.3-0.5,0.6-1,1-1.4c0.2,0,0.3,0.1,0.2,0.2c-0.1,0.2-0.1,0.3-0.2,0.5c0,0,0,0,0,0
			c-0.2,0.1-0.2,0.3-0.3,0.4c0,0,0,0-0.1,0c-0.2,0.2-0.4,0.3-0.5,0.4C126,342.3,125.9,342.2,125.9,342.1z"/>
		<path class="st0" d="M128.1,339.9c-0.2,0.2-0.4,0.4-0.7,0.7c-0.1,0.1-0.2,0.2-0.2,0.2s-0.1-0.1-0.2-0.2c0.3-0.5,0.6-1,1.1-1.5
			c0.1,0,0.2,0.1,0.1,0.4C128.1,339.8,128.1,339.8,128.1,339.9z"/>
		<path class="st0" d="M94.5,461.4c0.4,0.3,0.7,0.5,1.1,0.8c-0.1,0.1-0.1,0.2-0.2,0.3c-0.3-0.2-0.7-0.4-1-0.8
			C94.4,461.6,94.5,461.4,94.5,461.4z"/>
		<path class="st7" d="M202.3,546.7c0.2,0,0.6,0,0.9,0.1C202.9,546.9,202.7,546.8,202.3,546.7z"/>
		<path class="st8" d="M198.8,545.7c0-0.3,0.1-0.5,0.2-0.6c0.2,0.2,0.3,0.4,0.5,0.7C199.3,545.9,199.1,545.8,198.8,545.7z"/>
		<path class="st0" d="M115,359.5c0,0.5-0.2,1-0.5,1.5C114.5,360.5,114.7,360,115,359.5z"/>
		<path class="st0" d="M123.9,344.7c0.2-0.3,0.4-0.6,0.7-1c0.1-0.1,0.2,0,0.2,0.2c0,0.3-0.1,0.4-0.1,0.5c0,0,0,0-0.1,0
			c-0.2,0.2-0.4,0.3-0.6,0.4C124,344.8,123.9,344.7,123.9,344.7z"/>
		<path class="st0" d="M115.7,358.3c0,0.4-0.2,0.8-0.5,1.2C115.2,359.1,115.4,358.7,115.7,358.3z"/>
		<path class="st0" d="M93.3,460.8c0.4,0.2,0.7,0.3,1.1,0.6c0.1,0.1,0,0.2-0.1,0.3c-0.4-0.2-0.7-0.4-1-0.7
			C93.3,460.8,93.3,460.8,93.3,460.8z"/>
		<path class="st1" d="M106.8,379c0,0.3-0.1,0.6-0.3,1C106.5,379.8,106.6,379.4,106.8,379z"/>
		<path class="st0" d="M123.9,345.5c-0.1,0.1-0.2,0.2-0.4,0.2c0-0.3,0.2-0.6,0.4-0.9c0.1-0.1,0.2,0,0.2,0.2
			C124,345.2,123.9,345.4,123.9,345.5z"/>
		<path class="st0" d="M114.2,361c0.1,0.3,0,0.6-0.2,1C114,361.8,114.1,361.4,114.2,361z"/>
		<path class="st7" d="M120.3,482.1c0.1,0.2,0.2,0.4,0.2,0.6c-0.1-0.1-0.2-0.2-0.3-0.4C120.2,482.3,120.3,482.2,120.3,482.1z"/>
		<path class="st11" d="M192.6,546.1c0.1,0,0.2,0.1,0.2,0.1C192.7,546.2,192.7,546.1,192.6,546.1z"/>
		<path class="st11" d="M191.6,545.6c0,0.1,0,0.1,0,0.2C191.6,545.8,191.6,545.7,191.6,545.6z"/>
		<path class="st12" d="M176.3,539.5c0.3,0,0.5,0.1,0.7,0.3c0,0.2-0.1,0.3-0.1,0.3c-0.2-0.1-0.4-0.1-0.7-0.3
			C176.1,539.7,176.1,539.7,176.3,539.5z"/>
		<path class="st12" d="M177.6,539.9c0.1,0.1,0.1,0.2,0.1,0.5c-0.2,0.1-0.5,0-0.8-0.2c-0.1-0.1,0-0.2,0.1-0.3
			C177.2,539.8,177.4,539.9,177.6,539.9z"/>
		<path class="st0" d="M116.5,356.9c0.1,0.2,0,0.4-0.1,0.7C116.2,357.4,116.3,357.1,116.5,356.9z"/>
		<path class="st0" d="M113.8,362.1c0.1,0.2,0,0.4-0.1,0.7C113.6,362.6,113.7,362.4,113.8,362.1z"/>
		<path class="st0" d="M116.8,356c0.1,0.2,0.1,0.4-0.1,0.8C116.6,356.6,116.7,356.4,116.8,356z"/>
		<path class="st0" d="M98.5,464.6c-0.2-0.1-0.4-0.1-0.7-0.3c0-0.1,0.1-0.2,0.1-0.2c0.2,0.1,0.4,0.2,0.6,0.4
			C98.5,464.5,98.5,464.6,98.5,464.6z"/>
		<path class="st0" d="M116.1,357.6c0.1,0.2,0,0.4-0.1,0.7C115.9,358.1,115.9,357.9,116.1,357.6z"/>
		<path class="st0" d="M123.4,346.2c-0.1,0.2-0.2,0.2-0.4,0.3c0-0.2,0-0.5,0.3-0.8C123.4,345.7,123.4,345.9,123.4,346.2z"/>
		<path class="st0" d="M123,466.4c-0.1,0.2-0.2,0.4-0.3,0.5c0-0.2,0-0.3,0.1-0.6C122.9,466.3,123,466.4,123,466.4z"/>
		<path class="st0" d="M93.3,460.8c0,0-0.1-0.1-0.1-0.1S93.3,460.7,93.3,460.8C93.3,460.8,93.3,460.8,93.3,460.8z"/>
		<path class="st0" d="M97.8,464.2c-0.2,0-0.3,0-0.4-0.2c-0.1-0.1,0.1-0.2,0.1-0.3c0.2,0,0.3,0.1,0.4,0.2
			C97.9,464,97.8,464.1,97.8,464.2z"/>
		<path class="st0" d="M98.5,464.5c0.1,0,0.2,0.1,0.2,0.2c-0.1,0-0.2,0-0.3-0.1C98.5,464.6,98.5,464.5,98.5,464.5z"/>
		<path class="st0" d="M162.4,309.2c0-0.2,0.2-0.4,0.3-0.6c1-0.6,2-1.2,3-1.8c2.8-1.4,5.6-2.7,8.4-4
			C170.4,305,166.4,307.1,162.4,309.2z"/>
		<path class="st13" d="M234.3,295.4c-3.7,0.2-7.5,0.2-11.4,0.2c0.1-0.2,0.5-0.7,0.8-0.7c3.3,0,6.7,0,10,0
			C233.9,294.9,234.1,295.2,234.3,295.4z"/>
		<path class="st0" d="M185.7,298.3c2.8-0.9,5.7-1.8,8.8-2.7C191.8,296.6,188.8,297.5,185.7,298.3z"/>
		<path class="st0" d="M177.9,301.3c2-0.9,4.2-1.8,6.5-2.6C182.3,299.6,180.2,300.4,177.9,301.3z"/>
		<path class="st0" d="M174.5,302.8c0.9-0.5,1.9-1,3.1-1.5C176.7,301.8,175.7,302.3,174.5,302.8z"/>
		<path class="st9" d="M126,342.4c0.2-0.3,0.3-0.4,0.6-0.6c-0.1,0.3-0.3,0.7-0.7,1.1C125.8,342.8,125.9,342.6,126,342.4z"/>
		<path class="st9" d="M124,345.5c-0.1-0.1,0-0.3,0.1-0.5c0.2-0.3,0.3-0.4,0.5-0.6C124.5,344.7,124.3,345.1,124,345.5z"/>
		<path class="st0" d="M184.6,298.7c0.2-0.1,0.5-0.3,0.9-0.4C185.3,298.4,185,298.6,184.6,298.7z"/>
		<path class="st9" d="M127.1,340.9c0-0.1,0.2-0.1,0.2-0.2c0,0.2-0.1,0.4-0.3,0.6C127,341.2,127,341.1,127.1,340.9z"/>
		<path class="st9" d="M124.8,344.3c-0.1-0.1,0-0.2,0.1-0.5c0-0.1,0.2-0.1,0.2-0.2C125.1,343.9,125,344.1,124.8,344.3z"/>
		<path class="st9" d="M128.1,339.9c0-0.1,0-0.1,0.1-0.2c0.1,0,0.1,0.1,0.1,0.2C128.3,339.9,128.3,339.9,128.1,339.9z"/>
		<path class="st9" d="M126.7,341.7c0-0.1,0-0.2,0.2-0.4C126.9,341.4,126.9,341.6,126.7,341.7z"/>
		<path class="st2" d="M343.1,456.4c1.9,2.4,0.9,4.9,0.2,7.3c-0.1,0.5-1,0.8-1.6,1.2c-0.2-0.6-0.6-1.3-0.5-1.8
			C341.8,460.8,342.4,458.6,343.1,456.4z"/>
		<path class="st6" d="M297.6,319.5c0,0,0.1,0.1,0.1,0.1S297.6,319.7,297.6,319.5c0-0.1,0-0.1,0-0.2
			C297.6,319.4,297.6,319.4,297.6,319.5z"/>
		<path class="st12" d="M297.5,319.3c0.1,0.1,0.1,0.1,0.1,0.3c-0.2,0-0.3-0.1-0.5-0.3C297.2,319.3,297.2,319.3,297.5,319.3z"/>
		<path class="st12" d="M297.1,319.2c-0.1,0.1-0.2,0-0.3-0.1c-0.1-0.1,0.1-0.1,0.2-0.1C297,318.9,297.1,319.1,297.1,319.2z"/>
		<path class="st3" d="M276.4,305.4c0.2,0,0.3,0.1,0.5,0.1C276.8,305.6,276.6,305.6,276.4,305.4
			C276.4,305.4,276.4,305.4,276.4,305.4z"/>
		<path class="st3" d="M276.4,305.4c-0.2,0-0.3-0.1-0.5-0.1C276,305.3,276.2,305.3,276.4,305.4C276.4,305.4,276.4,305.4,276.4,305.4
			z"/>
		<path class="st3" d="M275.1,304.9"/>
		<path class="st3" d="M280.3,307.5"/>
		<path class="st14" d="M221.8,549.8c-2.2-0.3-4.3-0.6-6.4-1.1c0.8-0.4,1.6-0.6,2.5-0.8c0.5,0,1.1,0,1.8,0.2
			c0.4,0.3,0.6,0.5,0.8,0.5c3.8,0,7.6,0,11.4,0c0.3,0,0.7-0.4,1-0.6c9.2-0.7,18.2-2.1,27.1-4.7c18.6-5.4,35.9-16,49.3-30.4
			c-9,0.2-17.1-2.1-24.3-7.3c7.5-10.3,9.6-22.1,10.6-34.4c1.5-12.6-2.6-37.7-4.5-41.4c2.5,14.6,3.6,29.3,1.6,44.3
			c0,0.3,0,0.5-0.1,0.8c-0.1,0.4-0.1,0.7-0.2,1.1c-0.1,0.4-0.1,0.7-0.1,1.1c-0.1,0.3-0.1,0.4-0.2,0.7c-0.1,0.4-0.1,0.7-0.2,1.2
			c-0.1,0.3-0.1,0.4-0.1,0.7c-1.7,8.7-4.6,16.8-9.4,24.1c-7.9-5.6-14.1-12.9-19.4-21.1c2.4-2.4,5-4.4,7.1-6.9
			c9.3-11.4,14.2-24.7,16.2-39.1c2-14.8,1.5-29.5-0.2-44.3c-0.7-6.5-0.3-12.9,3.2-18.7c2.6-4.3,5.4-5.6,10.1-4.7c0,0,0,0,0,0.1
			c0.2,0.1,0.3,0.2,0.5,0.2c2.8,1.9,4,4.8,4.3,8c1.2,13.1,6,24.9,12.9,36.2c-1.2,2.2-2.3,4.3-3.5,6.2c-4.1,6.5-8.7,12.7-9.8,21
			c-0.3-1-0.5-1.6-0.7-2.4c-2.2-8.7-4.3-17.2-6.5-25.9c-0.2-0.7-0.4-1.2-0.6-1.9c0-0.1-0.1-0.2,0-0.4c-0.4-3.1-0.7-5.9-1.1-9
			c0-0.3,0-0.5-0.1-0.8c-0.2-4.6-0.4-9.1-0.5-13.1c-3.7,4.3-0.6,27.9,3.3,42.6c0.1,0.4,0.2,0.7,0.3,1.2c0.5,2,1,3.8,1.5,5.8
			c0.1,0.9,0.3,1.7,0.5,2.5c1,3.3,1.9,6.6,3.1,9.8c0.9,2.3,3,2.4,4.5,0.5c0.4-0.4,0.7-0.9,0.9-1.4c2.3-4.3,4.6-8.6,7-12.8
			c0.2,0.3,0.2,0.6,0.2,0.8c-0.6,7.1-1.1,14.3-1.7,21.4c-0.4,5.2-0.9,10.4-1.3,15.7c0,0.2,0,0.2,0,0.4c-0.1,0.7-0.2,1.2-0.3,1.9
			c0,0.3,0,0.5-0.1,0.8c-0.1,0.7-0.2,1.2-0.3,1.9c-1.9,10.9-4.8,21.3-9.5,31.2c0.3,0.1,0.5,0.3,0.8,0.4c1.1-1.7,2.5-3.3,3.2-5.2
			c2.2-6,4.7-12.1,6-18.3c1.6-7.8,2.2-15.8,3.4-23.8c0.4-1,0.6-1.9,1-3.4c0.7,1,1.4,1.5,1.4,2.1c0.1,1.2,0.1,2.5-0.3,3.7
			c-0.4,1.4,0.2,2.2,1.2,3c0.7-0.5,1.3-1,2-1.5c0.5,1.1,0.9,2.1,1.4,3c0,0.2,0,0.3-0.1,0.7c-0.3,0.8-0.5,1.5-0.7,2.4
			c-0.7-0.1-1.6-0.3-2.5-0.5c-0.8,2.1,0,3.4,1.7,4.4c0.9,0.5,1.7,1.8,1.9,2.9c0.4,2.3,0.3,4.8,0.5,7.1c0.1,1.7,0,3.2-1.1,4.4
			c0.4,0.9,0.8,1.6,1.2,2.4c-0.2,1.1-0.4,2.3-0.5,3.6c-0.3,1.2-0.5,2.3-1.1,3.2c-15,24.7-36.8,40.2-64.6,47.6
			c-3.2,0.8-6.5,1.3-9.9,2C238.7,550.5,230.3,550.7,221.8,549.8z"/>
		<path class="st15" d="M238.1,441.3c-3.9-5.5-7.7-11.1-13.1-15.3c-3.2-2.5-6.7-4.5-10-6.8c-0.6-0.4-1.3-1-1.6-1.6
			c-6.9-16.2-13.8-32.4-20.7-48.6c-1.2-2.8-2.4-5.6-3.8-8.7c-1.8,4.4-3.5,8.5-5.1,12.6c-11.9,31.1-23.8,62.2-35.5,93.4
			c-0.9,2.3-1.3,5-1.5,7.5c-0.2,2.7,1.1,5,3.6,6.1c2.4,1,5,1.6,7.4,2.3c0.3,0.1,0.7,0.2,1,0.6c-10.6,0-21.2,0-31.7,0
			c0-0.1-0.1-0.2-0.1-0.3c0.6-0.2,1.2-0.4,1.8-0.6c4.5-1.5,8.3-4.1,10.2-8.5c3.3-7.5,6.4-15,9.4-22.7c12-30.6,23.9-61.2,35.8-91.9
			c2.8-7.3,5.7-14.5,8.5-21.8c0.3-0.9,0.7-1.7,1.2-2.7c14.8,35.7,29.6,71.2,44.3,106.8C238.2,441.2,238.1,441.3,238.1,441.3z"/>
		<path class="st16" d="M204.4,489.6c-5.3,0.1-10.6,0.3-15.9,0.3c-1.2,0-1.7,0.4-2.1,1.5c-1.8,5.1-3.7,10.1-5.4,15.1
			c-0.4,1.3-0.7,2.7-0.9,4c-0.4,3.5,0.9,6.2,4,8.3c0.4,0.3,0.6,0.3,0.8,0.4c0,0,0.2,0,0.3,0.2c0.5,0.5,0.9,0.9,1.4,1.4
			c-2,0-3.7,0-5.4,0c-0.5,0-1,0.4-1.5,0.6c-0.9,0-1.8,0-2.9-0.1c-0.9-0.3-1.6-0.5-2.3-0.5c-3.4,0-6.9,0-10.4,0c0.5-0.7,0.7-1,1-1.4
			c0,0,0.1-0.1,0.4-0.1c0.8-0.4,1.3-0.8,1.9-1.2c3.5-2.6,5.5-6.2,7.1-10.1c5.4-13.7,10.8-27.4,16.2-41.1
			c4.6-11.6,9.1-23.2,13.7-34.8c0.2-0.6,0.5-1.1,0.7-1.7c3.5,2.8,5.4,6.6,7.3,10.3c8.1,16.3,16.2,32.6,24.2,49
			c3.1,6.3,6.2,12.7,9.4,18.9c2.2,4.3,4.8,8.4,9.6,10.7c0.8,0.6,1.6,1.1,2.5,1.6c-3.2,0-6.1,0-9,0c-6.3,0-12.5,0-18.8,0
			c-0.6,0-1.7,0.4-1.4-1c4.6-2.1,4.7-6.1,2.7-10.5c-2.8-6-5.8-12-8.7-18c-0.3-0.6-0.6-1.1-1-1.9c-0.4-0.4-0.7-0.6-0.9-0.6
			c-5.1,0-10.2,0-15.3,0C205.1,488.9,204.7,489.3,204.4,489.6 M196.7,464.1c-2.7,7.1-5.3,14.3-8.2,21.8c10.8,0.7,21,0.5,31.7,0.1
			c-5.9-12.5-11.7-24.5-17.6-37C200.5,454.3,198.7,459.1,196.7,464.1z"/>
		<path class="st14" d="M267.3,438.9c-4.4,3.2-8.8,6.4-13.2,9.6c-0.8,0.6-1.8,1-2.8,1.4c2.3-2.7,5-5.1,6.8-8.1
			c3.1-5.3,6-10.8,8.4-16.5c5.3-13,5.5-26.1-0.5-39.1c-0.9-2-1.8-4.1-2.8-6.4c5.4,1.1,10-0.7,14.4-3.2c0.2-0.1,0.3-0.2,0.4-0.4
			c0.2-0.2,0.4-0.3,0.6-0.4c0.2-0.1,0.3-0.2,0.4-0.3c0,0,0,0,0.1,0c0.2-0.1,0.3-0.2,0.4-0.4c0.1-0.2,0.2-0.2,0.5-0.3
			c0.3-0.2,0.5-0.5,0.6-0.7c0,0,0,0,0.1,0c0.2-0.2,0.4-0.3,0.5-0.5c0,0,0,0,0.1,0c0.6-0.5,1-1,1.4-1.5c0,0,0,0,0.1,0
			c0.2-0.2,0.2-0.3,0.4-0.5c0.6-0.5,1.1-0.9,1.8-1.3c0.2-0.2,0.3-0.3,0.5-0.5c0.1-0.2,0.2-0.2,0.5-0.2c0.3-0.2,0.4-0.3,0.7-0.6
			c0.1-0.1,0.3-0.2,0.5-0.2c0.3-0.1,0.4-0.3,0.6-0.4c0,0,0,0,0.1,0c0.8,0.3,1.4,0.6,2,0.9c0,0-0.1,0-0.2,0c-0.2,0.1-0.2,0.2-0.3,0.3
			c0,0,0,0-0.1,0c-0.2,0.2-0.3,0.3-0.4,0.5c-1.5,2.4-3.2,4.5-4.2,6.9c-2.1,5.2-1.7,10.8-1.2,16.2c0.5,6.3,1.1,12.7,1.5,19.1
			c-0.1,3.9-0.2,7.6-0.2,11.4c0,0.6,0.2,1.3,0.3,2.1c-0.7,5.5-1.1,11-2.3,16.3c-3.4,14.6-9.3,28-21.8,37.3c-3-5.3-6.1-10.5-9.1-15.8
			c-0.2-0.4,0.1-1.3,0.5-1.6c6.9-6.3,11.2-14.4,15.3-22.9c0.1-0.3,0-0.4,0-0.5C267.5,438.8,267.4,438.9,267.3,438.9z"/>
		<path class="st2" d="M178.1,421.3c-4.7,0.7-9.3,1.7-13.5,4.2c-0.1-0.1-0.2-0.3-0.3-0.4c0.6-0.6,1-1.4,1.7-1.8
			c12.7-7.7,26-8.5,39.8-3.6c11.4,4,19.8,11.9,27.1,21.2c6.9,8.8,11.9,18.8,17,28.6c5.4,10.3,11.3,20.2,19.3,28.7
			c7.1,7.5,15.1,13.5,25.4,15.8c3.3,0.8,6.7,0.9,10.3,1.3c-2.7,0.6-5.3,1.3-8,1.6c-13.1,1.5-24.3-3.1-34.3-11.2
			c-10-8.1-17.1-18.5-23.3-29.6c-4.9-8.9-9.5-18-14.6-26.8c-4.6-8.1-10.6-15.2-18.4-20.8c-0.2-0.4-0.3-0.7-0.4-0.8
			c-5.9-3.8-12.4-6.1-19.4-7c-0.3,0-0.6,0.4-0.9,0.6c-1.6,0-3.3,0-5.1-0.2C179.5,420.5,178.7,420.1,178.1,421.3z"/>
		<path class="st17" d="M293.7,359.1c-1.4,0.3-2.8,0.5-4.2,0.8c0-0.2,0,0.1,0.1,0.6c0,0.5,0,0.8,0,1.6c-5.9-6.5-8.1-13.7-8-21.9
			c-0.2,0.1-0.4,0.2-0.4,0.3c-0.1,0.9-0.3,1.8-0.3,2.8c-0.4,6.9,1.2,13,6.7,17.6c0.8,0.7,1.9,1,2.9,1.5c0.5,0.2,1,0.5,1.5,0.8
			c-3.4,0.2-6.6-0.4-9.1-2.8c-3.5-3.2-6.3-7-7.2-11.8c-0.4-2.4-0.5-5-0.7-7.5c-1.8,4.5-1.9,9,0.5,13.1c2.3,3.9,5.8,7,10.6,9
			c-11-1.2-15-2.4-15.1-15.9c-0.5,0.8-1.1,1.7-1.6,2.5c0.4-1.6,0.6-3.3,1.1-4.9c2.3-9,10-13.9,19.1-12.3c0.8,0.1,1.6,0.3,2.5,0.7
			c0.8,0.7,1.4,1.2,1.8,1.5c-1.1,0.2-2.1,0.3-3.3,0.5c0.5,1.1,0.8,1.6,1,2.2c0,0,0,0-0.1,0c-0.1,0.1-0.2,0.2-0.2,0.4c0,0,0,0-0.2,0
			c-0.4,0.5-0.6,1-0.9,1.5c0,0,0,0.1-0.2,0c-0.2,0.2-0.2,0.4-0.3,0.7c0,0,0,0-0.1,0c-3.2,4.7-2.7,9.8-2.2,15c0,0.2,0.6,0.4,1,0.7
			c0.7,2.2,2.3,2.6,4.2,2.6C293,358.7,293.3,358.9,293.7,359.1 M275.3,340.5c0.1,0,0.2,0,0.2,0C275.6,340.5,275.5,340.4,275.3,340.5
			z"/>
		<path class="st18" d="M277.4,376.7c-4.3,2.5-8.9,4.2-14.3,3.2c1,2.4,1.9,4.4,2.8,6.4c6,12.9,5.8,26,0.5,39.1
			c-2.3,5.7-5.2,11.2-8.4,16.5c-1.8,3-4.5,5.4-6.9,8.2c-1.9,0.9-3.8,1.7-6,2.7c2.1-1.9,3.9-3.4,5.5-5.1c5.1-5.3,8.9-11.4,10.7-18.6
			c0.2-0.9,0-1.9,0.1-3.2c-0.7-4-1.5-7.8-2.2-11.6c-0.7-3.8-1.4-7.7-2.1-11.5c0.2-0.1,0.5-0.1,0.7-0.2c2.4,7.3,5.5,14.5,5.7,22.5
			c4.1-9.5,5.3-19.1,3.1-29.1c-0.5-2.4-1.5-4.7-2.3-7c0,0,0,0,0.1-0.2c-0.8-2.7-1.7-5.3-2.5-7.9c-0.4-1.2-1-2-2.2-2.2
			c-1.1-1.6-1.3-3.1,0.2-4.6c0.8,1.1,1.5,1.9,2.9,1.4c0.4-0.1,0.9,0,1.2,0.1c3.5,1.3,6.9,0.7,10-1.1c2.4-1.3,4.5-3,6.9-4.5
			c4.2-2.8,8.6-4.6,13.7-4.2c0.3,0,0.6-0.2,0.8-0.3c0.4,0.3,0.8,0.6,1.1,0.9c-3.3-0.2-6.4,0.1-9.2,2c0,0,0,0-0.1,0
			c-0.3,0.1-0.5,0.2-0.6,0.4c-0.1,0-0.2,0-0.5,0.2c-0.3,0.2-0.5,0.4-0.7,0.5c-0.1,0-0.2,0.1-0.5,0.3c-0.3,0.2-0.4,0.3-0.5,0.5
			c-0.5,0.4-1.1,0.8-1.8,1.4c-0.2,0.3-0.3,0.4-0.4,0.5c0,0,0,0-0.1,0c-0.6,0.5-1,1-1.4,1.4c0,0,0,0.1-0.1,0.1
			c-0.2,0.2-0.4,0.3-0.5,0.5c0,0,0,0-0.1,0.1c-0.3,0.3-0.5,0.5-0.7,0.7c-0.1,0-0.2,0.1-0.4,0.3c-0.2,0.2-0.3,0.3-0.4,0.4
			c0,0,0,0-0.1,0c-0.2,0.1-0.3,0.2-0.4,0.3c-0.2,0.1-0.3,0.2-0.6,0.4C277.6,376.5,277.5,376.6,277.4,376.7z"/>
		<path class="st19" d="M285,412.4c-0.5-6.3-1.1-12.7-1.6-19c-0.5-5.5-0.9-11,1.2-16.2c1-2.4,2.7-4.5,4.3-6.9
			c0.2-0.3,0.3-0.4,0.4-0.5c0,0,0,0,0.1,0c0.2-0.1,0.3-0.1,0.3-0.3c0,0,0.1,0,0.2-0.1c2.5-1.7,5.1-2.3,7.9-2.1
			c0.5,0.4,1,0.9,1.5,1.5c-4.8-0.7-7.6,0.6-10.1,4.9c-3.5,5.8-3.9,12.2-3.2,18.7c1.6,14.8,2.2,29.5,0.2,44.3
			c-2,14.4-6.8,27.7-16.2,39.1c-2,2.5-4.7,4.5-7.1,6.8c-0.7-0.8-1.3-1.8-1.9-2.8c12.5-9.5,18.4-22.8,21.8-37.4
			c1.2-5.3,1.6-10.7,2.3-16.4C285,421.1,285,416.8,285,412.4z"/>
		<path class="st17" d="M259.9,378.9c1.2,0.1,1.8,0.9,2.2,2.1c0.8,2.6,1.7,5.2,2.4,8c-1.7,0.9-3.2,1.6-4.7,2.4
			c-0.1,0.1-0.1,0.3-0.2,0.5c-0.3,1.6-1,3,0.4,4.6c1.3,1.5,1,2.8-0.3,3.2c-0.6,0.2-1.1,0.5-1.6,0.8c0.4,0.5,0.6,1.2,1.1,1.6
			c1.7,1.3,2.9,2.8,2.7,5.1c-0.1,1.2,0.1,2.5,0.4,3.7c0.2,0.7,1.1,1.2,1.6,1.7c0.2-1.2,0-2.4,0.5-2.7c1.3-0.9,1.2-1.9,1-3.2
			c-0.2-1.4-1.8-2.9,0.2-4.3c-1.8-1.7-1.8-1.7-0.1-2.8c-2.1-1.1-1.5-2.3,0.2-3.4c-0.6-0.5-1.1-0.7-1.4-1.1c-0.6-0.8-1-1.7-1.6-2.5
			c0.7-0.4,1.3-0.7,2-1.1c0-0.7-0.1-1.5-0.1-2.3c0.8,2.3,1.7,4.6,2.3,7c2.2,10,1,19.6-3.1,29.1c-0.3-8-3.3-15.2-5.7-22.5
			c-0.2,0.1-0.5,0.1-0.7,0.2c0.7,3.8,1.3,7.7,2.1,11.5c0.7,3.8,1.5,7.6,2.2,11.5c-5-9.8-5.6-20.1-3.3-30.8
			C259.3,389.7,260.3,384.4,259.9,378.9 M260.6,385.6c0.6,0.3,1.3,0.6,1.9,0.9c0.2-0.1,0.4-0.3,0.6-0.4c-0.5-0.8-0.9-1.7-1.4-2.5
			C261.3,384.2,260.8,384.8,260.6,385.6z"/>
		<path class="st14" d="M317.7,414.5c1.2,1.6,2.6,3.2,3.7,4.9c1.1,1.8-0.3,3.4-1.1,5.3c-4.2,6.3-8.2,12.4-12.3,18.5
			c-0.8,1.3-1.8,2.4-2.7,3.5c0-1.2,0-2.2,0-3.3c0-0.3,0-0.5,0-0.8c0.4-4.4,1.4-8.4,3.4-12.1C311.6,425.1,314.7,419.8,317.7,414.5z"
			/>
		<path class="st5" d="M305.3,446.9c0.9-1.2,1.9-2.4,2.7-3.7c4.1-6.1,8.1-12.2,12.3-18.4c-0.3,1.3-0.7,2.7-1.3,4.3
			c-0.2,0.2-0.2,0.2-0.4,0.2c-0.6,1.3-1,2.5-1.5,3.8c-0.3,0.6-0.5,1.7-1.7,0.5c-0.1,0.7-0.1,1.2-0.2,1.8c-2.3,4.3-4.6,8.6-6.9,12.9
			c-0.3,0.5-0.6,1-0.9,1.4c-1.5,1.9-3.7,1.8-4.5-0.5c-1.2-3.2-2.1-6.5-3.1-9.8c-0.2-0.8-0.4-1.6-0.5-2.7c0-0.8,0.1-1.2,0-1.6
			c-0.5-1.4-1-2.8-1.5-4.2c-0.1-0.3-0.2-0.6-0.2-1.1c-0.1-1.9-0.3-3.5-0.6-5.1c-1.2-7.9-2.5-15.7-3.6-23.6c-0.3-2.1,0-4.3,0-6.4
			c0.3,0.5,0.3,1.1,0.4,1.6c0.3,1.4,0.7,2.8,1,4.3c0,0.2,0.1,0.3,0,0.7c0.3,3.2,0.8,6.1,1.2,9c0,0,0.1,0.2,0,0.4
			c0.2,0.8,0.4,1.3,0.6,1.9c2.2,8.5,4.3,17.1,6.4,25.8c0.1,1.8,0.4,3.4,0.6,4.9c0.2,0,0.3,0.1,0.5,0.1c0.2-1.1,0.5-2.3,0.7-3.3
			c0.2,0.9,0.4,1.9,0.5,2.9c0,0.2,0,0.3-0.1,0.6C303.9,444.7,304.6,445.8,305.3,446.9z"/>
		<path class="st18" d="M291.9,478.8c0-0.3,0.1-0.6,0.3-1.1c0.1-0.4,0.1-0.6,0.1-0.8c0-0.3,0-0.6,0.2-1.1c0.2-0.5,0.2-0.9,0.2-1.2
			c0-0.2,0-0.3,0.2-0.7c0.5-3.1,1-6.1,1.2-9.1c0.3-3.6,0.3-7.2,0.5-10.8c0.2,0,0.5,0,0.7,0c0,5.1,0,10.2,0,15.2
			c0,0.6,0.2,1.3,0.3,1.9c-0.9,12.2-3,23.9-10.6,34.2c-0.9-0.4-1.7-0.9-2.5-1.6c4.8-7.4,7.6-15.5,9.4-24.2
			C291.9,479.2,291.9,479,291.9,478.8z"/>
		<path class="st14" d="M265.8,364.6c0.8-3.5,1.6-6.9,2.7-10.5c0.8,0.9,1.5,1.9,1.9,3c1,2.9,2.8,5.1,5.7,6.3
			c1.9,0.6,3.7,1.1,5.6,1.6c0.4,0.1,0.7,0.7,1,1.1c-0.1,0-0.2,0-0.4,0c-0.4,0.2-0.7,0.4-1.1,0.6c-3.3,0.8-6.4,2-9.6,2.3
			C268.2,369.4,266.4,367.6,265.8,364.6z"/>
		<path class="st20" d="M276.1,363.4c-2.9-1.1-4.7-3.3-5.7-6.2c-0.4-1.1-1.1-2-1.8-3.1c0.1-1.4,0.4-2.7,0.7-4.1
			c0.6-1,1.1-1.8,1.7-2.6c0.1,13.5,4.1,14.7,15.1,15.9c-4.8-2-8.3-5-10.6-9c-2.4-4.1-2.3-8.6-0.5-13.1c0.2,2.6,0.2,5.1,0.7,7.5
			c0.9,4.8,3.6,8.6,7.2,11.8c2.6,2.3,5.7,2.9,9.3,2.8c0.5,0.2,0.9,0.4,1.1,0.7c-2.4,0.1-4.6,0-6.9,0.2
			C282.8,364.4,279.4,364.3,276.1,363.4z"/>
		<path class="st9" d="M322.6,469.3c-0.5-0.8-0.9-1.8-1.4-2.9c-0.7,0.5-1.3,1-2,1.5c-1.1-0.8-1.6-1.5-1.2-3c0.3-1.2,0.4-2.5,0.3-3.7
			c0-0.6-0.7-1.1-1.4-2.1c-0.4,1.5-0.7,2.4-1.1,3.3c-0.2-0.3-0.2-0.6-0.2-1c0-1.2,0-2.2,0.1-3.3c0.1-0.6,0.2-1.2,0.2-2
			c0.1-1.8,0.2-3.5,0.4-5c0.2,1.1,0.2,2.1,0.3,3.1c0.1,0.6,0.7,1.7,0.8,1.6c1.1-0.3,3-0.7,3.1-1.2c0.3-1.7,0-3.6-0.5-5.3
			c-0.1-0.4-1.8-0.3-2.8-0.4c-0.1,0-0.2,0-0.3,0.1c-0.2,0.4-0.4,0.9-0.7,1.1c0-1.1,0.1-2,0.2-2.9c0.1-0.1,0.1-0.1,0.1-0.1
			c0-0.1-0.1-0.1-0.2-0.3c0.1-0.9,0.1-1.7,0.3-2.4c1.2,0.9,2.2,1.8,3.4,2.7c-0.2-2.5-0.4-4.8-0.6-7.1c-0.1-1.5,0-3-0.5-4.4
			c-0.5-1.5-0.4-2.7,0.3-4C320.4,444,321.5,456.6,322.6,469.3 M319.6,462.4c0.6,0.7,1.3,1.3,2,2.1c-0.3-1.4-0.5-2.5-0.8-4
			C320.3,461.1,320,461.6,319.6,462.4 M321,458.4c0-0.3,0-0.7,0-1c-0.1,0-0.2,0-0.3,0C320.8,457.8,320.8,458.2,321,458.4
			 M321.6,465.4"/>
		<path class="st14" d="M281,370c-2.3,1.5-4.5,3.2-6.8,4.5c-3.1,1.8-6.5,2.4-10,1.1c-0.4-0.1-0.9-0.3-1.2-0.1
			c-1.4,0.5-2.1-0.3-2.8-1.5c1.2-2,2.5-4,4-5.8c3,3,6.5,3.8,10.4,2.9c1.7-0.4,3.4-1,5.3-1.5C280.3,369.7,280.7,369.9,281,370z"/>
		<path class="st20" d="M279.7,369.6c-1.7,0.5-3.4,1.1-5.2,1.5c-3.9,0.9-7.4,0.1-10.3-3c0.4-1.2,0.9-2.2,1.4-3.4
			c0.7,2.9,2.5,4.7,5.9,4.4c3.2-0.3,6.3-1.4,9.7-2.3c0.5-0.3,0.8-0.4,1.1-0.6c0,0,0.2,0,0.4-0.1c3.7-1.5,7.3-1.7,11-1.5
			c0.1,0,0.2,0,0,0.2C288.5,364.9,284.1,367.2,279.7,369.6z"/>
		<path class="st21" d="M305.3,442.6c-0.2-0.8-0.4-1.8-0.6-2.7c-0.2,1-0.5,2.2-0.7,3.3c-0.2,0-0.3-0.1-0.5-0.1
			c-0.2-1.6-0.5-3.1-0.6-4.8c0.3,0.6,0.5,1.2,0.8,2.2c1.1-8.2,5.7-14.5,9.8-21c1.2-1.9,2.3-4,3.6-6.1c0.3,0.2,0.5,0.5,0.7,0.9
			c-3,5.4-6.1,10.7-9,16.1C306.7,434.2,305.7,438.2,305.3,442.6z"/>
		<path class="st9" d="M323.4,492.9c-0.4-0.6-0.8-1.4-1.2-2.2c1.1-1.1,1.2-2.7,1.1-4.4c-0.2-2.4-0.1-4.8-0.5-7.1
			c-0.2-1.1-1-2.4-1.9-2.9c-1.8-0.9-2.5-2.2-1.7-4.4c0.9,0.2,1.8,0.4,2.5,0.5c0.2-0.9,0.4-1.6,0.7-2.3c0.5,6.3,1,12.7,1.4,19.1
			C323.8,490.4,323.5,491.6,323.4,492.9z"/>
		<path class="st22" d="M228.5,519.9c-0.1,1.3,0.9,0.9,1.6,0.9c6.3,0,12.5,0,18.8,0c2.9,0,5.9,0,9,0c-0.9-0.6-1.6-1-2.4-1.6
			c2.5,0.5,5,1.2,7.5,1.8c0,0.1,0,0.2,0,0.2c-12.8,0-25.7,0-38.5,0c0-0.1,0-0.2-0.1-0.3C225.7,520.6,227,520.3,228.5,519.9z"/>
		<path class="st4" d="M293.8,359.1c-0.5-0.2-0.8-0.4-1.1-0.7c1.1-1.2,2.4-2,3.1-3.3c2.9-5.5,2.9-11.1,0.2-16.6
			c0.5,0.5,1.1,1,1.3,1.5c0.6,1.4,1,2.8,1.6,4.7c0.3-1.4,0.5-2.3,0.7-3.3c0.8,5.5-0.5,10.6-3.4,15.3
			C295.7,357.6,294.7,358.3,293.8,359.1 M299.2,345.9c0-0.2-0.1-0.3-0.1-0.5c0,0-0.1,0.1-0.1,0.1C299,345.7,299.1,345.9,299.2,345.9
			z"/>
		<path class="st14" d="M319.2,431.3c-0.8,1.5-0.9,2.7-0.4,4.2c0.5,1.4,0.3,2.9,0.5,4.4c0.2,2.3,0.4,4.6,0.6,7.1
			c-1.2-1-2.2-1.8-3.4-2.9c0.6-5.1,1.4-10,2.1-14.9c0.1,0,0.1,0,0.3,0C319.1,429.8,319.2,430.5,319.2,431.3z"/>
		<path class="st21" d="M290.3,362.3c-0.9-0.4-2-0.7-2.8-1.4c-5.5-4.6-7.2-10.7-6.7-17.6c0.1-0.9,0.2-1.9,0.3-2.8
			c0-0.1,0.2-0.1,0.4-0.3c-0.2,8.2,2.1,15.4,8,21.9c0-0.9,0-1.1,0.1-1.5C289.8,361.1,290.1,361.6,290.3,362.3z"/>
		<path class="st1" d="M185.7,421.4c0.1-0.3,0.5-0.7,0.7-0.7c7,1,13.4,3.3,19.4,7c0.2,0.1,0.2,0.4,0.4,0.7c-4.7-1.9-9.3-4-14.1-5.8
			C190.1,421.9,188,421.9,185.7,421.4z"/>
		<path class="st17" d="M299.7,341.3c-0.2,1.1-0.4,2-0.7,3.4c-0.6-1.9-1-3.3-1.6-4.7c-0.2-0.6-0.8-1-1.3-1.5c-0.1,0-0.1,0-0.1-0.1
			c-0.2-0.3-0.3-0.4-0.5-0.6c0,0,0,0.1,0-0.1c-0.1-0.2-0.2-0.2-0.4-0.3c0,0,0,0,0-0.1c-0.2-1.2-0.1-1.9,1.2-1.1
			c0.5,0.3,1.1,0.2,1.7,0.3C298.6,338,299.1,339.6,299.7,341.3z"/>
		<path class="st4" d="M297.9,336.4c-0.5,0-1.2,0-1.7-0.2c-1.4-0.8-1.4-0.1-1.4,1.1c-0.7-0.3-1.2-0.6-1.7-1
			c-0.6,0.4-1.1,0.8-1.7,1.2c-0.3-0.5-0.5-1.1-1-2.2c1.2-0.2,2.2-0.3,3.3-0.5c-0.4-0.3-1-0.8-1.7-1.4
			C294.4,333.7,296.5,334.3,297.9,336.4z"/>
		<path class="st23" d="M118.2,450.1c1.4-0.7,2.6-0.4,3,0.9c0.2,0.7-0.1,2.1-0.7,2.5c-0.5,0.4-1.9,0.2-2.5-0.2
			C116.9,452.3,117.2,451.2,118.2,450.1z"/>
		<path class="st9" d="M293.8,364.6c-3.7-0.1-7.3,0.1-10.9,1.6c-0.5-0.3-0.8-0.9-1.3-1c-1.8-0.6-3.7-1-5.6-1.6
			c3.3,0.8,6.7,1,10.1,0.6c2.2-0.2,4.5-0.1,6.9-0.1C293.5,364.2,293.7,364.3,293.8,364.6z"/>
		<path class="st22" d="M164.8,519.4c-0.1,0.4-0.4,0.7-0.9,1.4c3.6,0,7,0,10.4,0c0.7,0,1.4,0.2,2.2,0.5c-5.2,0.1-10.5,0.1-15.7,0.1
			c0-0.1-0.1-0.2-0.1-0.4C162.1,520.5,163.4,520,164.8,519.4z"/>
		<path class="st9" d="M279.9,369.6c4.2-2.4,8.6-4.7,14-4.7c0.6,0.1,1.1,0.3,1.6,0.6c-0.1,0.2-0.4,0.3-0.7,0.3
			c-5.1-0.4-9.5,1.3-13.7,4.2C280.7,369.9,280.3,369.7,279.9,369.6z"/>
		<path class="st9" d="M217.7,547.8c-0.7,0.3-1.5,0.5-2.5,0.8c-3.4-0.5-6.6-1.1-9.9-1.8c-0.3-0.1-0.5-0.3-0.7-0.5
			C209,546.7,213.3,547.2,217.7,547.8z"/>
		<path class="st13" d="M204.5,489.6c0.2-0.2,0.6-0.7,1-0.7c5.1,0,10.2,0,15.3,0c0.3,0,0.5,0.2,0.8,0.5
			C216,489.6,210.3,489.6,204.5,489.6z"/>
		<path class="st22" d="M179.8,521.5c0.3-0.2,0.8-0.6,1.4-0.6c1.7-0.1,3.5,0,5.4,0c-0.5-0.5-0.9-0.8-1.3-1.3c2,0.4,3.9,1,5.9,1.5
			c0,0.2,0,0.3,0,0.5C187.4,521.5,183.7,521.5,179.8,521.5z"/>
		<path class="st9" d="M297.8,367.1c-2.8-0.1-5.4,0.5-7.8,2.2c-0.7-0.3-1.4-0.6-2.2-0.9c2.6-1.9,5.7-2.1,9.1-1.9
			C297.3,366.7,297.5,366.9,297.8,367.1z"/>
		<path class="st13" d="M232.7,547.9c-0.2,0.2-0.5,0.6-0.8,0.6c-3.8,0-7.6,0-11.4,0c-0.2,0-0.4-0.2-0.7-0.5
			C224,547.9,228.3,547.9,232.7,547.9z"/>
		<path class="st1" d="M178.2,421.4c0.4-1.3,1.2-0.9,2.1-0.2C179.7,421.4,179.1,421.4,178.2,421.4z"/>
		<path class="st22" d="M167.1,518.1c-0.4,0.4-1,0.8-1.7,1.2C165.8,518.9,166.4,518.5,167.1,518.1z"/>
		<path class="st15" d="M238.5,441.6c0.1,0.2,0.2,0.4,0.3,0.5C238.6,442,238.5,441.9,238.5,441.6
			C238.5,441.6,238.5,441.6,238.5,441.6z"/>
		<path class="st22" d="M184.8,519.2c-0.1,0-0.4,0-0.7-0.2C184.3,518.9,184.5,519,184.8,519.2z"/>
		<path class="st15" d="M238.3,441.1c0.1,0.1,0.2,0.2,0.2,0.4c0,0.1,0,0.1,0,0.1c-0.1,0-0.3,0-0.4-0.2
			C238.1,441.3,238.2,441.2,238.3,441.1z"/>
		<path class="st19" d="M299.8,369c-0.1,0.1-0.2,0-0.4-0.1C299.4,368.8,299.6,368.9,299.8,369z"/>
		<path class="st2" d="M105.1,381.9c0.2,0.3,0.2,0.7,0.3,1.1c-0.1,0-0.3,0-0.4,0C105,382.7,105,382.4,105.1,381.9z"/>
		<path class="st18" d="M315.5,461.5c0,0.3,0.1,0.6,0.1,0.9c-1,8-1.6,16-3.2,23.8c-1.3,6.2-3.8,12.3-6,18.3
			c-0.7,1.9-2.1,3.5-3.2,5.2c-0.3-0.1-0.5-0.3-0.8-0.4c4.7-9.9,7.6-20.4,9.6-31.3c0.2-0.8,0.2-1.4,0.2-2c0-0.2,0-0.4,0.2-0.7
			c0.2-0.8,0.2-1.4,0.2-1.9c0-0.1,0-0.1,0.1-0.3c0.7-3.5,1.3-6.9,1.7-10.3c0.3-2.7,0.3-5.4,0.5-8.1c0.3,0.8,0.2,1.6,0.3,2.4
			C315.2,458.6,315.3,460.1,315.5,461.5z"/>
		<path class="st21" d="M315.5,461.4c-0.2-1.3-0.3-2.8-0.4-4.2c-0.1-0.8,0-1.6-0.3-2.4c-0.2,2.7-0.2,5.4-0.5,8.1
			c-0.4,3.4-1,6.8-1.7,10.2c0.3-5.2,0.8-10.3,1.2-15.5c0.6-7.1,1.1-14.3,1.7-21.4c0-0.2-0.1-0.5-0.2-0.8c-0.1-0.6,0-1.2,0.1-1.8
			c1.3,1.2,1.5,0.1,1.7-0.5c0.5-1.2,0.9-2.5,1.5-3.8c-0.6,4.8-1.4,9.7-2.1,14.8c-0.1,1-0.1,1.7-0.2,2.8c0,0.2,0,0.4,0,0.4
			c0,0.9-0.1,1.8-0.1,3c0,0.4,0,0.6,0,0.8c-0.1,1.7-0.2,3.3-0.4,5.2c-0.2,0.8-0.2,1.4-0.2,2C315.5,459.2,315.5,460.2,315.5,461.4
			 M315.4,446.7c0-0.2-0.1-0.3-0.1-0.5c-0.1,0-0.2,0-0.3,0c0,2.4,0,4.8,0,7.3c0.1,0,0.3,0,0.4,0
			C315.4,451.3,315.4,449.1,315.4,446.7z"/>
		<path class="st21" d="M295.5,471.1c-0.1-0.5-0.4-1.1-0.4-1.8c0-5.1,0-10.2,0-15.2c-0.2,0-0.5,0-0.7,0c-0.1,3.6-0.2,7.2-0.5,10.8
			c-0.2,3-0.7,6-1.2,9c1.9-14.8,0.8-29.4-1.7-44.1C293,433.4,297,458.5,295.5,471.1z"/>
		<path class="st21" d="M294.7,400.2c-0.4-1.3-0.8-2.7-1-4.1c-0.1-0.5,0-1.1-0.4-1.6c0,2.1-0.3,4.3,0,6.4c1.1,7.9,2.4,15.8,3.6,23.6
			c0.3,1.6,0.5,3.3,0.6,5c-4-14.5-7.1-38.1-3.4-42.4C294.4,391.1,294.5,395.6,294.7,400.2z"/>
		<path class="st21" d="M295.9,409.9c-0.5-2.8-0.9-5.7-1.2-8.7C295.2,404,295.6,406.9,295.9,409.9z"/>
		<path class="st21" d="M297.8,430.9c0.5,1.2,1,2.6,1.5,4c0.1,0.4,0,0.9,0,1.5C298.8,434.7,298.3,432.9,297.8,430.9z"/>
		<path class="st21" d="M296.6,412.2c-0.2-0.4-0.4-1-0.6-1.7C296.1,411,296.4,411.5,296.6,412.2z"/>
		<path class="st21" d="M312.1,476.3c0,0.5,0,1.1-0.1,1.7C311.9,477.5,312,477,312.1,476.3z"/>
		<path class="st21" d="M312.4,473.7c0,0.5,0,1.1-0.1,1.7C312.3,474.9,312.3,474.3,312.4,473.7z"/>
		<path class="st21" d="M292.6,474.8c0,0.2,0,0.6-0.1,1C292.4,475.5,292.5,475.2,292.6,474.8z"/>
		<path class="st21" d="M291.8,478.9c0.1,0.1,0.1,0.3,0,0.6C291.8,479.4,291.8,479.2,291.8,478.9z"/>
		<path class="st21" d="M292.2,477c0.1,0.1,0.1,0.3,0,0.6C292.1,477.5,292.1,477.3,292.2,477z"/>
		<path class="st24" d="M196.7,464c1.9-4.9,3.8-9.7,5.8-15c6,12.5,11.7,24.6,17.6,37c-10.7,0.4-20.9,0.6-31.7-0.1
			C191.3,478.4,194,471.3,196.7,464z"/>
		<path class="st13" d="M284.9,412.5c0.1,4.3,0.1,8.6,0.1,13.2c-0.1-0.5-0.3-1.1-0.3-1.8C284.7,420.1,284.7,416.4,284.9,412.5z"/>
		<path class="st9" d="M281.3,373.6c0.3-0.5,0.7-1,1.3-1.5C282.3,372.6,281.9,373.1,281.3,373.6z"/>
		<path class="st9" d="M279.9,374.8c0.1-0.2,0.3-0.4,0.5-0.7C280.4,374.4,280.2,374.6,279.9,374.8z"/>
		<path class="st9" d="M287,368.8c0.1-0.1,0.2-0.2,0.5-0.4C287.5,368.6,287.3,368.7,287,368.8z"/>
		<path class="st9" d="M280.7,374.1c0-0.1,0.2-0.3,0.4-0.5C281.1,373.7,280.9,373.9,280.7,374.1z"/>
		<path class="st9" d="M285.9,369.6c0-0.1,0.2-0.3,0.5-0.4C286.3,369.2,286.2,369.4,285.9,369.6z"/>
		<path class="st9" d="M282.8,372.1c0-0.1,0-0.2,0.2-0.4C283,371.8,283,372,282.8,372.1z"/>
		<path class="st7" d="M267.4,439c0-0.1,0.1-0.2,0.3-0.3c0,0.1,0.1,0.2,0,0.4C267.6,439.1,267.5,439.1,267.4,439z"/>
		<path class="st9" d="M284.9,370.3c0-0.1,0.1-0.2,0.3-0.4C285.3,370,285.2,370.1,284.9,370.3z"/>
		<path class="st9" d="M289.2,369.7c0,0.1,0,0.2-0.2,0.4C288.9,370,289,369.9,289.2,369.7z"/>
		<path class="st9" d="M289.6,369.4c0.1,0.2,0,0.2-0.2,0.3C289.3,369.6,289.4,369.5,289.6,369.4z"/>
		<path class="st9" d="M279.1,375.5c0-0.1,0.1-0.2,0.2-0.3C279.3,375.3,279.2,375.4,279.1,375.5z"/>
		<path class="st9" d="M277.5,376.7c0-0.1,0.1-0.2,0.3-0.3C277.8,376.4,277.7,376.5,277.5,376.7z"/>
		<path class="st9" d="M278.6,375.9c0-0.1,0.1-0.2,0.3-0.3C278.9,375.6,278.8,375.8,278.6,375.9z"/>
		<path class="st25" d="M291.6,337.5c0.5-0.4,1.1-0.8,1.7-1.2c0.5,0.4,1,0.7,1.7,1.1c0.1,0,0.1,0,0.2,0.1c0.1,0.2,0.2,0.3,0.3,0.3
			c0,0,0.1-0.1,0.1,0c0.1,0.3,0.3,0.4,0.4,0.6c0,0,0,0,0,0c2.8,5.6,2.8,11.1-0.1,16.6c-0.7,1.2-2,2.1-3.2,3.2
			c-2,0.2-3.6-0.3-4.3-2.6c-1.3-5.5-0.7-10.6,1.3-15.6c0,0,0,0,0.1-0.1c0.2-0.2,0.3-0.4,0.3-0.6c0,0,0,0,0.1-0.1
			c0.4-0.5,0.7-1,1-1.4c0,0,0,0,0.1-0.1C291.5,337.7,291.5,337.6,291.6,337.5C291.6,337.5,291.6,337.5,291.6,337.5z"/>
		<path class="st4" d="M289.6,340.1c-1.9,4.9-2.6,10-1.3,15.4c-0.3,0-0.9-0.2-1-0.4C286.8,349.9,286.4,344.8,289.6,340.1z"/>
		<path class="st4" d="M291.1,337.8c-0.1,0.5-0.4,0.9-0.8,1.4C290.4,338.8,290.7,338.3,291.1,337.8z"/>
		<path class="st4" d="M290,339.4c0.1,0.2,0,0.4-0.2,0.6C289.8,339.9,289.8,339.6,290,339.4z"/>
		<path class="st4" d="M291.5,337.5c0.1,0.1,0,0.2-0.1,0.3C291.3,337.7,291.3,337.6,291.5,337.5z"/>
		<path class="st20" d="M275.4,340.4c0.1,0,0.1,0,0.2,0.1C275.5,340.5,275.4,340.5,275.4,340.4z"/>
		<path class="st14" d="M264.5,389c0.1,0.8,0.1,1.6,0.2,2.3c-0.7,0.4-1.4,0.8-2,1.1c0.5,0.8,1,1.7,1.6,2.5c0.3,0.4,0.8,0.7,1.4,1.1
			c-1.7,1.1-2.3,2.3-0.2,3.4c-1.8,1.1-1.8,1.1,0.1,2.8c-2,1.3-0.4,2.8-0.2,4.3c0.2,1.3,0.3,2.3-1,3.2c-0.5,0.3-0.3,1.5-0.5,2.7
			c-0.5-0.5-1.4-1-1.6-1.7c-0.4-1.2-0.5-2.5-0.4-3.7c0.2-2.4-1-3.8-2.7-5.1c-0.5-0.4-0.7-1-1.1-1.6c0.5-0.3,1-0.6,1.6-0.8
			c1.2-0.4,1.6-1.7,0.3-3.2c-1.4-1.6-0.7-3-0.4-4.6c0-0.2,0.1-0.5,0.2-0.5c1.5-0.8,3-1.5,4.7-2.3C264.5,389,264.5,389,264.5,389z"/>
		<path class="st14" d="M260.5,385.5c0.3-0.7,0.8-1.4,1.2-2c0.5,0.8,0.9,1.7,1.4,2.5c-0.2,0.1-0.4,0.3-0.6,0.4
			C261.9,386.2,261.2,385.9,260.5,385.5z"/>
		<path class="st21" d="M305.3,446.7c-0.8-0.9-1.4-2-0.2-3.2C305.3,444.5,305.3,445.5,305.3,446.7z"/>
		<path class="st9" d="M282.3,366.2c-0.2,0.2-0.5,0.3-0.9,0.5C281.6,366.6,281.9,366.4,282.3,366.2z"/>
		<path class="st14" d="M316.2,451.1c-0.1-0.3-0.1-0.4-0.1-0.7c0.3-0.5,0.5-1,0.7-1.4c0.1,0,0.2-0.1,0.3-0.1c1,0.1,2.7,0,2.8,0.4
			c0.5,1.7,0.8,3.6,0.5,5.3c-0.1,0.6-2,1-3.1,1.2c-0.1,0-0.7-1-0.8-1.6C316.4,453.2,316.4,452.2,316.2,451.1z"/>
		<path class="st14" d="M319.6,462.2c0.4-0.6,0.7-1.1,1.3-1.8c0.3,1.5,0.5,2.7,0.8,4C320.9,463.7,320.3,463,319.6,462.2z"/>
		<path class="st14" d="M315.6,458.1c-0.1-0.5-0.1-1.1,0.1-1.8C315.8,456.9,315.8,457.5,315.6,458.1z"/>
		<path class="st14" d="M320.9,458.5c-0.1-0.3-0.2-0.7-0.2-1.1c0.1,0,0.2,0,0.3,0C321,457.7,321,458.1,320.9,458.5z"/>
		<path class="st14" d="M321.6,465.4"/>
		<path class="st14" d="M316.3,447.2c-0.1,0-0.1-0.1-0.1-0.2c0.1,0,0.1,0,0.2,0.1C316.4,447.1,316.4,447.1,316.3,447.2z"/>
		<path class="st17" d="M299.2,346c-0.1-0.1-0.1-0.3-0.2-0.4c0,0,0.1-0.1,0.1-0.1C299.2,345.6,299.2,345.8,299.2,346z"/>
		<path class="st4" d="M295.9,338.4c-0.1,0-0.3-0.2-0.5-0.4C295.5,338,295.7,338.1,295.9,338.4z"/>
		<path class="st4" d="M295.4,337.7c-0.1,0-0.2,0-0.3-0.2C295.2,337.5,295.3,337.6,295.4,337.7z"/>
		<path class="st18" d="M315.4,446.8c0,2.3,0,4.5,0,6.6c-0.1,0-0.3,0-0.4,0c0-2.4,0-4.8,0-7.3c0.1,0,0.2,0,0.3,0
			C315.3,446.3,315.4,446.5,315.4,446.8z"/>
	</g>
</g>
<g>
	<path class="st26" d="M668,509.7c2.7-2.9,5.8-5.2,10.1-4.7c1.5,0.2,3.2,0.7,4.5,1.5c3.5,2.2,7,4.5,10.3,6.9c4,2.9,7.5,6.2,9.5,10.9
		c-0.2-3.6-0.2-7.2-3.2-10c-3-2.9-2.9-6.4-1.3-9.9c1.8-3.8,3.6-7.7,5.5-11.8c2.1,5.1,4.5,10.1,6.1,15.2c0.5,1.7-0.2,4.7-1.5,5.9
		c-3.6,3.5-3.7,7.8-3.6,12.3c0.3-0.6,0.6-1.2,0.9-1.8c2.4-5.7,6.6-9.8,11.9-12.8c1.3-0.7,2.7-1.5,3.8-2.4c6.8-5.7,11-5.7,17.6,0.7
		c1.3,0.3,2.3,0.2,3.4,0.2c1,0,1.9,0,3.1,0.2c-1.2,0.5-2.6,0.7-4,1c-0.9,0.2-1.7,0.7-2.5,1c-1.2,0.9-2.3,1.9-3.6,2.7
		c-3.5,2.2-7.1,2.5-10.6,0.3c-3.1-1.9-5.8-1.5-8.6,0.5c-5.9,4.1-8.7,10.2-11,16.6c-0.5,1.4-0.9,2.8-1.4,4.6
		c-1.3-3.8-2.3-7.2-3.8-10.4c-2.1-4.8-5.3-8.9-9.9-11.6c-2.4-1.4-4.7-1.6-7.6-0.3c-2.2,0.6-4,1.2-5.8,1.8c-1.2-0.3-2.4-0.5-3.8-1.2
		c-0.7-0.6-1.3-0.9-1.9-1.1c0,0,0.1,0,0-0.2c-1.3-3.4-4.3-2.4-6.6-2.9C665.4,510.6,666.7,510.2,668,509.7 M674.5,515.5"/>
	<path class="st27" d="M962.4,463.2c15.3,0,30.3,0,45.3,0c0.7,0,1.4-0.1,2,0.1c0.4,0.1,0.8,0.8,0.8,1.2c0,0.4-0.5,1-0.9,1.1
		c-0.6,0.2-1.3,0.1-2,0.1c-35,0-70,0-104.9,0c-0.7,0-1.4,0.1-2-0.1c-0.4-0.1-0.8-0.8-0.8-1.2c0-0.4,0.5-1,0.9-1.1
		c0.8-0.2,1.7-0.1,2.5-0.1C922.9,463.2,942.5,463.2,962.4,463.2z"/>
	<path class="st27" d="M452.4,465.8c-15.9,0-31.6,0-47.2,0c-0.6,0-1.2,0.2-1.7-0.1c-0.5-0.2-0.9-0.8-1-1.3c-0.1-0.3,0.5-0.9,1-1.1
		c0.6-0.2,1.3-0.1,2-0.1c33.2,0,66.3,0,99.5,0c0.9,0,1.8,0,2.7,0c1,2.9-0.9,2.5-2.3,2.5c-16,0-32,0-48.1,0
		C455.7,465.8,454.2,465.8,452.4,465.8z"/>
	<path class="st1" d="M667.7,509.8c-1,0.4-2.3,0.9-3.5,1.3c2.3,0.5,5.3-0.5,6.6,2.9c-2.1-1.6-4.5-1.7-7.1-1.7
		c-35.2,0.1-70.3,0-105.8-0.2c-0.3-0.8-0.3-1.4-0.3-2c33.2,0,66.4,0,100,0.2c0.8,0.1,1.4-0.1,1.9-0.2
		C662.2,510,664.8,509.9,667.7,509.8z"/>
	<path class="st1" d="M739.1,512.3c0.6-0.4,1.4-0.8,2.2-1c1.4-0.3,2.8-0.5,4.2-0.9c22.2-0.2,44.3-0.2,66.4-0.2
		c12.1,0,24.1,0,36.5,0.2c0.3,0.8,0.3,1.4,0.3,2c-17.5,0-35-0.1-52.5-0.1C777.2,512.2,758.2,512.3,739.1,512.3z"/>
	<path class="st11" d="M557.6,509.9c0,0.8,0,1.4,0,2.2c-1.5,3.6-4.1,4.9-6.9,3.7c-2.5-1.1-3.9-4.1-2.5-6.6c0.8-1.4,2.6-2.7,4.2-3.1
		C555,505.6,556.7,507.3,557.6,509.9z"/>
	<path class="st23" d="M848.6,512.5c0-0.7,0-1.3,0-2.2c0.4-0.9,0.8-1.7,1.5-2.5c0.4-0.3,0.5-0.5,0.6-0.7c2.6-1.7,4.2-1.5,6.6,1.1
		c0.1,0.6,0.2,0.9,0.4,1.2c0,0-0.1,0-0.1,0.2c0.2,1,0.3,1.8,0.5,2.6c0.1,0.2,0,0.4-0.4,0.6c-0.4,0.5-0.5,0.8-0.6,1.2c0,0,0,0-0.2,0
		c-0.2,0.3-0.3,0.5-0.4,0.7c-0.3,0.1-0.5,0.2-1.1,0.2c-2.1-0.7-4.5-0.1-5.5-2.4c-0.3,0.1-0.6,0.3-0.9,0.4
		C848.9,512.9,848.8,512.8,848.6,512.5z"/>
	<path class="st1" d="M849.1,513.2c0.3-0.3,0.6-0.5,0.9-0.6c1,2.3,3.3,1.8,5.3,2.5C852.7,516.9,851.4,516.5,849.1,513.2z"/>
	<path class="st1" d="M676.7,516.5c1.5-0.6,3.3-1.2,5.4-1.8C680.5,515.3,678.7,515.9,676.7,516.5z"/>
	<path class="st26" d="M659.3,510c-0.3,0.2-0.9,0.3-1.5,0.3C658.3,510.1,658.7,510,659.3,510z"/>
	<path class="st1" d="M742,510c-0.8,0.1-1.9,0.2-3.1,0C739.8,509.8,740.8,509.9,742,510z"/>
	<path class="st1" d="M670.9,514.3c0.5,0.1,1.1,0.3,1.7,0.8C672,515,671.5,514.7,670.9,514.3z"/>
	<path class="st1" d="M858.3,512.1c-0.2-0.6-0.4-1.4-0.6-2.5C857.9,510.3,858.1,511.1,858.3,512.1z"/>
	<path class="st1" d="M857.3,514c-0.1-0.3,0-0.6,0.3-1C857.7,513.3,857.6,513.6,857.3,514z"/>
	<path class="st1" d="M850.6,507.2c0,0.1-0.1,0.3-0.3,0.5C850.3,507.6,850.4,507.5,850.6,507.2z"/>
	<path class="st1" d="M857.8,509.3c-0.2-0.1-0.3-0.4-0.3-0.8C857.7,508.6,857.7,508.9,857.8,509.3z"/>
	<path class="st1" d="M856.7,514.8c-0.1-0.1,0-0.3,0.3-0.6C857.1,514.3,857,514.5,856.7,514.8z"/>
	<path class="st1" d="M674.5,515.5"/>
	<text transform="matrix(1 0 0 1 402.5576 407.0664)" class="st14 st28 st29">AL ANSAR</text>
	<g>
		<g>
			<path class="st2" d="M538,446.8h3.6l11.3,30.2h-5.3l-7.8-22.5l-7.8,22.5h-5.3L538,446.8z M532,466.4h15.9v4.8H532V466.4z"/>
			<path class="st2" d="M566.9,446.8h4.9v30.2h-4.9V446.8z M569.4,472.2h8.9c1.7,0,3-0.4,3.9-1.1c0.8-0.7,1.3-1.7,1.3-3V468
				c0-0.9-0.2-1.7-0.5-2.3c-0.3-0.6-0.8-1.1-1.5-1.5c-0.7-0.3-1.5-0.5-2.6-0.5h-9.4v-4.6h9.4c1.4,0,2.4-0.3,3.1-1s1.1-1.6,1.1-2.9
				c0-1.2-0.4-2.2-1.1-2.8c-0.8-0.6-1.9-1-3.4-1h-9.1v-4.7h9.6c2,0,3.6,0.3,4.9,1c1.3,0.7,2.4,1.6,3,2.8s1,2.7,1,4.4
				c0,1.1-0.2,2.1-0.7,3c-0.4,0.9-1.1,1.7-1.9,2.3c-0.8,0.6-1.9,1-3.1,1.2c1.3,0.2,2.4,0.6,3.3,1.3c0.9,0.7,1.6,1.5,2.1,2.5
				c0.5,1,0.7,2.2,0.7,3.4v0.1c0,1.7-0.4,3.1-1.1,4.4c-0.7,1.2-1.8,2.2-3.1,2.9c-1.4,0.7-3,1-4.8,1h-10V472.2z"/>
			<path class="st2" d="M612.5,446.8h3.6l11.3,30.2h-5.3l-7.8-22.5l-7.8,22.5h-5.3L612.5,446.8z M606.5,466.4h15.9v4.8h-15.9V466.4z
				"/>
			<path class="st2" d="M651,465v11.9H646V465l-9-18.2h5.3l6.2,13.3l6.2-13.3h5.3L651,465z"/>
			<path class="st2" d="M680.9,446.8h3.6l11.3,30.2h-5.3l-7.8-22.5l-7.8,22.5h-5.3L680.9,446.8z M674.9,466.4h15.9v4.8h-15.9V466.4z
				"/>
			<path class="st2" d="M736,476.8c-1.3-0.3-2.6-0.7-3.8-1.3c-1.2-0.6-2.2-1.2-3.2-2.1l2.6-4c1.2,1,2.5,1.7,3.9,2.2
				c1.4,0.5,3,0.8,4.6,0.8c2,0,3.6-0.4,4.7-1.1c1.1-0.7,1.7-1.7,1.7-3v0c0-0.9-0.2-1.7-0.7-2.2c-0.5-0.5-1.1-0.9-2-1.2
				c-0.8-0.3-1.8-0.5-3.1-0.7c0,0-0.1,0-0.1,0c0,0-0.1,0-0.1,0l-0.4-0.1c-2-0.3-3.7-0.7-5-1.2c-1.3-0.5-2.4-1.3-3.3-2.4
				s-1.4-2.8-1.4-5v0c0-1.9,0.4-3.5,1.3-4.9c0.9-1.4,2.1-2.4,3.7-3.1c1.6-0.7,3.6-1.1,5.9-1.1c1.1,0,2.2,0.1,3.2,0.4
				c1.1,0.2,2.2,0.6,3.2,1.1c1,0.5,2.1,1,3,1.7l-2.4,4.1c-1.2-0.8-2.3-1.5-3.5-1.9c-1.2-0.4-2.4-0.6-3.5-0.6c-1.9,0-3.4,0.3-4.4,1
				s-1.6,1.7-1.6,3v0c0,1,0.3,1.7,0.8,2.3c0.5,0.6,1.2,1,2,1.2c0.8,0.3,1.9,0.5,3.4,0.8c0.1,0,0.1,0,0.2,0s0.1,0,0.2,0
				c0.1,0,0.1,0,0.2,0s0.2,0,0.2,0c1.9,0.4,3.4,0.8,4.7,1.3c1.3,0.5,2.3,1.4,3.1,2.5c0.8,1.2,1.3,2.7,1.3,4.8v0
				c0,1.9-0.4,3.5-1.3,4.8s-2.2,2.4-3.9,3.1s-3.7,1-6.1,1C738.8,477.2,737.4,477.1,736,476.8z"/>
			<path class="st2" d="M762.7,446.8h21.7v4.8h-21.7V446.8z M771.1,449.2h4.9v27.7h-4.9V449.2z"/>
			<path class="st2" d="M801.6,475.8c-1.6-0.9-2.9-2.2-3.8-3.9c-0.9-1.7-1.3-3.6-1.3-5.8v-8.5c0-2.2,0.4-4.2,1.3-5.8
				c0.9-1.7,2.2-3,3.8-3.9s3.5-1.4,5.7-1.4s4,0.5,5.7,1.4c1.6,0.9,2.9,2.2,3.8,3.9c0.9,1.7,1.3,3.6,1.3,5.8v8.5
				c0,2.2-0.5,4.2-1.3,5.8c-0.9,1.7-2.2,3-3.8,3.9c-1.6,0.9-3.5,1.4-5.7,1.4S803.2,476.8,801.6,475.8z M810.3,471.6
				c0.9-0.5,1.5-1.2,2-2.1c0.5-0.9,0.7-2,0.7-3.2v-8.8c0-1.2-0.2-2.3-0.7-3.2c-0.5-0.9-1.1-1.6-2-2.1s-1.9-0.7-3-0.7
				c-1.1,0-2.1,0.2-3,0.7s-1.5,1.2-2,2.1c-0.5,0.9-0.7,2-0.7,3.2v8.8c0,1.2,0.2,2.3,0.7,3.2c0.5,0.9,1.1,1.6,2,2.1
				c0.9,0.5,1.9,0.7,3,0.7C808.4,472.3,809.4,472.1,810.3,471.6z"/>
			<path class="st2" d="M834.3,446.7h5v30.2h-5V446.7z M836.3,459.7h10.4c0.7,0,1.3-0.2,1.8-0.5s0.9-0.8,1.2-1.4
				c0.3-0.6,0.4-1.3,0.5-2.2c0-0.8-0.1-1.5-0.4-2.2c-0.3-0.6-0.7-1.1-1.2-1.4s-1.2-0.5-1.9-0.5h-10.4v-4.8h10.5
				c1.7,0,3.2,0.4,4.5,1.1c1.3,0.7,2.3,1.8,3,3.1c0.7,1.3,1.1,2.9,1.1,4.6c0,1.8-0.4,3.3-1.1,4.7c-0.7,1.3-1.7,2.4-3,3.1
				c-1.3,0.7-2.8,1.1-4.5,1.1h-10.5V459.7z M843.6,463.5l5.1-1l7.9,14.3h-6L843.6,463.5z"/>
			<path class="st2" d="M871.8,446.8h5v30.2h-5V446.8z M873.8,446.8h17.7v4.8h-17.7V446.8z M873.8,459.6h15.5v4.7h-15.5V459.6z
				 M873.8,472.2h17.7v4.8h-17.7V472.2z"/>
		</g>
	</g>
</g>
</svg>
